<svg width="92" height="62" viewBox="0 0 92 62" fill="none" xmlns="http://www.w3.org/2000/svg">
<path d="M72.916 12.1106C73.1564 12.164 72.5868 11.8491 71.9336 11.5065C71.8058 11.4356 71.6736 11.3731 71.5462 11.3129L71.545 11.3124C71.509 11.2954 71.4734 11.2786 71.4383 11.2618C71.3265 11.2098 71.2201 11.1583 71.1192 11.1094C71.0709 11.0859 71.0238 11.0631 70.9779 11.0411C70.8236 10.9658 70.691 10.9032 70.5957 10.8582C70.5327 10.8285 70.486 10.8064 70.46 10.7934C70.914 11.0257 71.3214 11.2406 71.6876 11.4455C72.0094 11.6416 72.4141 11.8726 72.916 12.1106Z" fill="#FF7597"/>
<path d="M72.8464 12.8188C72.1796 12.4969 71.7754 12.2587 71.6339 12.1044L71.6401 12.0184C71.6936 12.0523 71.7582 12.0913 71.8294 12.1336C71.9103 12.1814 71.9998 12.2334 72.0913 12.2865L72.0919 12.2869C72.5189 12.5348 72.9907 12.8087 72.8464 12.8188Z" fill="#FF7597"/>
<path d="M76.7442 14.9953C76.7887 15.0562 76.8802 15.142 77.0121 15.2597C77.1441 15.3773 77.3231 15.5199 77.5431 15.6871C78.5777 16.2445 78.3851 16.0361 77.933 15.7008C77.7069 15.5332 77.4156 15.3392 77.1758 15.1922L77.1752 15.1919C77.1447 15.1747 77.1142 15.1575 77.0854 15.1404C77.059 15.1248 77.0341 15.1093 77.0119 15.0939C76.9827 15.0799 76.9553 15.066 76.9306 15.0536C76.9105 15.0434 76.8922 15.0341 76.8763 15.0265C76.7994 14.9921 76.7513 14.9814 76.7442 14.9953Z" fill="#FF7597"/>
<path d="M18.6732 52.6211L18.6868 52.6258C18.6825 52.6237 18.6789 52.6223 18.6761 52.6216C18.675 52.6214 18.6741 52.6212 18.6732 52.6211Z" fill="#FF7597"/>
<path d="M18.712 52.6996C18.675 52.649 18.6576 52.6197 18.6732 52.6211C18.4503 52.5452 18.4987 52.5853 18.712 52.6996Z" fill="#FF7597"/>
<path d="M17.501 19.1051L17.4494 19.0581L17.5692 19.1748L17.501 19.1051Z" fill="#FF7597"/>
<path d="M20.4455 17.4881C20.0506 17.7981 20.014 17.8819 20.3225 17.7529C20.2977 17.7584 20.5719 17.5981 20.8451 17.4521C20.9218 17.4065 20.9984 17.363 21.0698 17.3224C21.129 17.2888 21.1846 17.2572 21.2338 17.2281C21.2911 17.1962 21.3352 17.1778 21.3671 17.1585C21.399 17.1392 21.4178 17.1333 21.4178 17.1333C21.435 17.149 21.4015 17.1898 21.3305 17.2423C21.2595 17.2948 21.1566 17.3666 21.0284 17.451C20.8644 17.5573 20.6544 17.682 20.4302 17.8151C20.3127 17.8849 20.1912 17.9571 20.0704 18.0301C19.7771 18.2131 19.4799 18.3909 19.2338 18.5381C19.1847 18.5674 19.1378 18.5955 19.0932 18.6222C18.8307 18.7906 18.6457 18.8997 18.6391 18.9064C17.75 19.4617 17.5577 19.419 17.6198 19.2361C17.6111 19.2715 17.6476 19.2742 17.7104 19.2499C17.7263 19.2402 17.7454 19.2308 17.7659 19.2206C17.7865 19.2104 17.8087 19.1994 17.831 19.1866C17.8542 19.1697 17.8805 19.155 17.9084 19.1393C17.9348 19.1246 17.9626 19.109 17.9907 19.09C18.2268 18.9486 18.5548 18.7202 18.8894 18.485C19.0596 18.3712 19.2331 18.2539 19.3993 18.1416C19.5654 18.0294 19.7241 17.9221 19.8652 17.8279C19.9357 17.7826 20 17.7368 20.0639 17.6982C20.1277 17.6596 20.185 17.6277 20.2362 17.5954C20.3381 17.5379 20.408 17.4998 20.4455 17.4881Z" fill="#FF7597"/>
<path fill-rule="evenodd" clip-rule="evenodd" d="M23.116 10.3688C28.7759 7.49929 34.7572 5.68345 40.8106 4.88583C40.8286 4.87921 40.8465 4.87249 40.8643 4.86561C41.3719 4.68618 41.836 4.51803 41.8254 4.49564C41.8405 4.53538 41.8447 4.57307 41.8485 4.60692C41.856 4.6732 41.8618 4.7248 41.9434 4.74852C42.3036 4.70867 42.6639 4.67239 43.0244 4.6397C43.1086 4.62605 43.1991 4.61111 43.2962 4.59476C43.5803 4.55048 43.9207 4.48863 44.3294 4.41012C44.7438 4.33921 45.2198 4.25836 45.7759 4.1689C45.9243 4.14361 46.0601 4.12459 46.1897 4.10516C46.2228 4.10202 46.2552 4.09882 46.2868 4.09568C46.3296 4.09142 46.3712 4.08729 46.4117 4.08363C46.4578 4.07945 46.5026 4.07584 46.5463 4.07331C46.7676 4.05327 46.9448 4.05169 47.0972 4.0555C47.402 4.06312 47.5877 4.11257 47.7117 4.17197C47.8272 4.22733 47.8903 4.29298 47.946 4.35102C47.968 4.37392 47.9889 4.39563 48.0114 4.41508C48.7804 4.41537 49.5489 4.43177 50.3165 4.4642C50.3867 4.45463 50.4566 4.44438 50.5265 4.43312C50.7614 4.39713 50.9893 4.35548 51.2087 4.31536L51.209 4.31532C51.676 4.22997 52.1048 4.15157 52.483 4.14952C52.8131 4.14456 53.119 4.13786 53.3944 4.12897C53.5291 4.12429 53.6638 4.11961 53.7864 4.11407C53.8425 4.11152 53.8972 4.1104 53.9507 4.10931L53.9518 4.10928L53.997 4.10832C54.0305 4.10757 54.0635 4.10666 54.096 4.10524L54.1089 4.10464L54.1169 4.10426L54.1353 4.10328C54.5763 4.08473 54.9141 4.05872 55.1673 4.0194C55.4206 3.98007 55.5948 3.93504 55.6962 3.88473C55.8036 3.83487 55.8437 3.78733 55.8357 3.72911C55.8153 3.50431 55.0678 3.28457 54.8723 3.28485C54.7308 3.2889 54.5611 3.31294 54.3662 3.34056L54.3656 3.34063C54.2658 3.3548 54.1594 3.36987 54.0468 3.38366C54.0243 3.38593 54.0015 3.38832 53.9785 3.39081C53.949 3.39399 53.9191 3.39728 53.8887 3.40064L53.8837 3.4012C53.7647 3.41434 53.6392 3.42823 53.5054 3.43818C53.3095 3.44562 53.1014 3.45218 52.8827 3.43636C52.112 3.38065 52.3925 3.28681 52.6209 3.21039C52.7688 3.1609 52.8948 3.11872 52.6994 3.09894C52.5177 3.07859 52.2984 3.06995 52.0478 3.07343C51.7972 3.07693 51.5206 3.10015 51.232 3.12251C50.6542 3.17439 50.0262 3.24426 49.4508 3.34674C48.876 3.44207 48.3613 3.54894 48.0068 3.63857C47.6517 3.73537 47.4632 3.8082 47.5462 3.84301C47.1667 3.87693 46.621 3.8698 46.0437 3.86226C45.8075 3.85917 45.566 3.85601 45.3284 3.85557L45.1535 3.8522C44.8073 3.84556 44.4752 3.83918 44.1881 3.83076C43.8524 3.82811 43.5775 3.82984 43.4124 3.83232C43.1126 3.83946 42.7926 3.87396 42.4836 3.92366C42.1747 3.97336 41.8768 4.03828 41.6215 4.10628C41.1109 4.24225 40.7598 4.36816 40.8079 4.37884C40.2706 4.24368 39.3706 4.44605 38.0357 4.7462C37.3736 4.89507 36.6046 5.06798 35.7198 5.2357L35.6917 5.2403L35.6687 5.24415L35.5934 5.25693C35.4545 5.2806 35.2531 5.31492 35.0092 5.35003C34.9608 5.35524 34.91 5.36291 34.8569 5.37145C34.8222 5.37703 34.7865 5.383 34.7499 5.3889C34.6632 5.40426 34.5701 5.42634 34.4713 5.4408C34.2793 5.47736 34.0813 5.51347 33.8772 5.54915C33.7753 5.56872 33.6735 5.58782 33.5726 5.60678C33.2684 5.6639 32.972 5.71955 32.7061 5.78147C32.3521 5.86393 32.0592 5.94362 31.8961 6.00386C31.6664 6.08951 31.429 6.18663 31.148 6.30168L30.9977 6.36313C30.9485 6.38323 30.8979 6.40385 30.8458 6.42503C30.4181 6.59583 29.8912 6.78827 29.1567 6.98011C29.0714 7.00599 28.9377 7.04579 28.7637 7.0976C28.3898 7.20888 27.83 7.37552 27.1653 7.57817C27.0895 7.60331 27.0121 7.62887 26.9333 7.65483L26.4848 7.80225L26.1323 7.9181C26.0623 7.94114 25.9916 7.96442 25.9204 7.98793C25.8049 8.02605 25.688 8.06475 25.57 8.104C25 8.30053 24.4047 8.50965 23.8145 8.73352C22.6345 9.17413 21.4756 9.65947 20.5716 10.084C20.5055 10.1128 20.4414 10.1418 20.3781 10.1708C20.3329 10.1916 20.2881 10.2124 20.2433 10.2332C20.1419 10.2835 20.0406 10.3338 19.9458 10.3774C19.8263 10.4367 19.7142 10.4937 19.6112 10.5467C19.5503 10.578 19.4927 10.6079 19.4385 10.6361C19.1461 10.795 18.9419 10.9171 18.8638 10.9835C18.9128 10.893 19.0227 10.7305 19.0593 10.6762L19.0605 10.6744L19.061 10.6738L19.0704 10.6599C18.8043 10.7919 18.5885 10.906 18.404 11.0079L18.3156 11.0586C18.1763 11.1384 18.0574 11.2065 17.9514 11.2706C17.7531 11.3851 17.6038 11.4858 17.4506 11.5891L17.3827 11.6349C17.3611 11.6493 17.3394 11.6639 17.3173 11.6786C17.1059 11.8146 16.8626 11.9699 16.4612 12.2002C16.2635 12.3156 16.0279 12.4499 15.7349 12.616C15.7026 12.6343 15.6697 12.653 15.6361 12.6719L15.5435 12.7241C15.4524 12.7753 15.3571 12.8286 15.2575 12.8841C15.0791 12.9865 14.8941 13.0956 14.6904 13.2105C13.9572 13.6385 13.5407 13.9717 13.1274 14.3023L13.0302 14.38L13.0064 14.3981L12.975 14.4221C12.9587 14.4347 12.9423 14.4474 12.9259 14.4601C12.8757 14.4992 12.8249 14.5393 12.7732 14.5802L12.7716 14.5814C12.625 14.6972 12.4698 14.8197 12.293 14.9463L12.238 14.9857L12.2372 14.9863C11.9658 15.1807 11.6463 15.4095 11.2391 15.6698C10.4199 16.2059 9.83802 16.4998 9.46195 16.6897L9.41714 16.7123C9.33232 16.8719 9.1222 17.1593 8.77417 17.5808C8.61938 17.774 8.43471 17.9821 8.2233 18.2203L8.14103 18.3131C8.02132 18.4485 7.88841 18.5974 7.74284 18.7526L7.73041 18.7653L7.71787 18.7783C7.70649 18.7901 7.69508 18.8021 7.68364 18.8142C7.66768 18.831 7.65163 18.8481 7.63544 18.8653C7.59743 18.9058 7.55858 18.9472 7.51814 18.9885C7.46867 19.0479 7.4167 19.1038 7.36375 19.1608L7.34349 19.1826C7.55234 18.9507 7.55654 18.8899 7.41641 18.9595C7.3404 18.9972 7.22534 19.0681 7.07733 19.1727C7.00028 19.2248 6.92269 19.284 6.83246 19.3495C6.74223 19.4151 6.65148 19.4877 6.55413 19.5671C6.35943 19.726 6.14444 19.9122 5.92285 20.1051C5.85691 20.1683 5.78979 20.2321 5.72201 20.2966L5.71946 20.299C5.56546 20.4454 5.4081 20.595 5.2534 20.7483C5.02974 20.9698 4.81719 21.2066 4.61125 21.4367C4.5113 21.5519 4.41744 21.6676 4.32358 21.7833C4.22971 21.899 4.14245 22.0079 4.06125 22.1173C3.94855 22.2661 4.02436 22.2994 4.11636 22.3398C4.15112 22.3551 4.18818 22.3713 4.21827 22.3952C4.328 22.4824 4.3449 22.6709 3.84661 23.3121C3.81206 23.3523 3.76998 23.4038 3.72326 23.461L3.6983 23.4915L3.67259 23.5229C3.64928 23.5513 3.62509 23.5814 3.59982 23.6129C3.5525 23.6718 3.50133 23.7354 3.44479 23.8018C3.43422 23.8142 3.42365 23.8267 3.41303 23.8393C3.40019 23.8546 3.38729 23.87 3.37431 23.8856L3.33366 23.9345L3.33286 23.9355L3.33167 23.9369C3.29806 23.9774 3.26368 24.0189 3.22783 24.0612C3.20925 24.0832 3.19029 24.1053 3.17083 24.1278L3.15309 24.1482L3.15212 24.1494L3.15181 24.1497C3.0575 24.2585 2.95797 24.3732 2.86337 24.4946L2.54222 24.882C2.43518 25.0111 2.32153 25.147 2.22056 25.2766C2.012 25.5425 1.8045 25.794 1.62388 26.0115C1.26769 26.4612 0.995286 26.7657 0.936603 26.7327C0.907262 26.7161 0.932745 26.6171 1.02778 26.4007C1.07859 26.2891 1.14313 26.1569 1.22847 25.9901C1.27113 25.9068 1.32039 25.8167 1.37019 25.7194C1.38578 25.6924 1.40143 25.6647 1.41738 25.6366L1.41766 25.6361C1.45871 25.5637 1.50181 25.4876 1.55146 25.4083C1.67636 25.2012 1.79312 25.0224 1.9215 24.8515C1.93719 24.8307 1.95307 24.8098 1.96912 24.7889C1.98276 24.7711 1.99652 24.7533 2.0104 24.7355L2.03206 24.7078C2.04091 24.6965 2.0498 24.6852 2.05875 24.6739C2.09133 24.6325 2.1245 24.5908 2.15823 24.5484C2.19974 24.4963 2.24207 24.4431 2.28511 24.3883C2.30282 24.3657 2.32065 24.3429 2.33858 24.3198L2.36526 24.2854C2.43185 24.1997 2.50305 24.1082 2.57506 24.0055C2.60972 23.9622 2.64454 23.9166 2.6803 23.8689C2.69173 23.8536 2.70325 23.8381 2.7149 23.8224C2.73475 23.7956 2.75494 23.7682 2.77561 23.7401L2.77616 23.7394L2.78126 23.7325C2.80424 23.7012 2.82779 23.6692 2.85213 23.6365C2.8798 23.5967 2.90859 23.5558 2.93819 23.5137C3.01064 23.4107 3.08795 23.3008 3.16579 23.1837C3.19007 23.1491 3.21492 23.114 3.24024 23.0783C3.33567 22.9435 3.43779 22.7993 3.54088 22.6416C3.65051 22.4767 3.72616 22.3597 3.7749 22.2767C3.82365 22.1938 3.8521 22.1382 3.86632 22.1104C3.89138 22.0561 3.86631 22.0629 3.84301 22.0693L3.83736 22.0708C3.83569 22.0712 3.83405 22.0716 3.83245 22.072C3.80764 22.0774 3.79653 22.0622 3.87824 21.9456C3.91935 21.8837 3.98077 21.7945 4.07515 21.6717C4.09762 21.6424 4.12167 21.6104 4.14766 21.5759L4.14809 21.5753C4.23104 21.4649 4.3334 21.3288 4.46534 21.174C4.56346 21.0523 4.65687 20.9398 4.74588 20.8326L4.7469 20.8314L4.80679 20.7592C4.90777 20.6296 5.00823 20.5072 5.10157 20.3987C5.14393 20.3495 5.18495 20.3012 5.22471 20.2541C5.32321 20.1374 5.41393 20.0274 5.4979 19.9256L5.50356 19.9188L5.50416 19.918L5.50658 19.9151L5.50788 19.9135C5.53589 19.8795 5.56313 19.8465 5.58964 19.8144C5.66201 19.7288 5.73012 19.6485 5.79496 19.572C5.98739 19.345 6.15093 19.152 6.31107 18.9588L6.31203 18.9578L6.31241 18.9573C6.53163 18.7071 6.75096 18.4568 7.04206 18.14C7.11759 18.0662 7.19668 17.9855 7.28152 17.899C7.36644 17.8123 7.45714 17.7198 7.55583 17.6224C7.57425 17.601 7.59351 17.5808 7.61334 17.5608C7.62678 17.5473 7.64047 17.5339 7.65431 17.5204L7.656 17.5187C7.67297 17.5021 7.69021 17.4853 7.70749 17.4676C7.73441 17.4436 7.76148 17.4176 7.78945 17.3908C7.81572 17.3656 7.84279 17.3397 7.87128 17.3138C7.92768 17.2626 7.98572 17.2082 8.04527 17.1522L8.06565 17.1331C8.09706 17.1035 8.12889 17.0736 8.16111 17.0435C8.18862 17.0178 8.21644 16.992 8.24453 16.9662L8.25291 16.9586L8.25333 16.9582C8.71815 16.5379 9.98743 15.3902 11.7303 14.1131C12.6013 13.4701 13.5969 12.7928 14.6582 12.1347C15.7196 11.4766 16.8407 10.8373 17.9581 10.2481C20.1991 9.0701 22.4306 8.10756 24.1269 7.45214C24.248 7.40775 24.3652 7.36306 24.4794 7.31948C24.5665 7.28627 24.6518 7.25372 24.7359 7.22241L24.7683 7.21034L24.7904 7.20202L24.8363 7.18469L24.9235 7.1515L24.9243 7.15121L24.925 7.15091L24.9255 7.15072L24.9267 7.15028C25.0513 7.10271 25.1713 7.05696 25.2882 7.01739C25.6332 6.89105 25.9403 6.78358 26.1971 6.69408C26.7108 6.5151 27.0239 6.40806 27.0736 6.39725C26.8259 6.44417 26.7403 6.44519 26.7728 6.41871C26.8052 6.39224 26.9562 6.33112 27.1938 6.25464C27.3164 6.21518 27.4589 6.16951 27.6163 6.11921C27.7639 6.07201 27.9246 6.02074 28.0941 5.96671C28.2845 5.91106 28.4842 5.84781 28.6881 5.78322L28.6894 5.7828L28.6906 5.78243C28.8117 5.74407 28.9342 5.70524 29.0572 5.66727C29.113 5.65003 29.1689 5.63297 29.2248 5.61621L30.7233 5.16263L32.2314 4.74575L32.6052 4.64309C32.6675 4.626 32.7312 4.61078 32.7949 4.59557C32.8586 4.58036 32.9223 4.56515 32.9846 4.54805L34.5022 4.1679C34.6408 4.13378 34.781 4.10202 34.9221 4.07007C35.0343 4.04466 35.1472 4.01909 35.26 3.99215L36.0178 3.8164C36.2726 3.75558 36.5274 3.69475 36.7811 3.64825L38.3057 3.34063C38.4059 3.32244 38.5059 3.30417 38.606 3.2859L38.7942 3.25144L38.7972 3.25096L38.7986 3.25072C39.6541 3.09411 40.5073 2.93791 41.3669 2.81271C43.6952 2.45513 46.0349 2.19203 48.3729 2.03689C48.6493 2.02268 48.9257 2.00688 49.2028 1.99103C49.5097 1.97346 49.8174 1.95584 50.1266 1.94033L51.8837 1.88007L53.6377 1.8628L54.5167 1.86871L55.3952 1.88181L55.8341 1.89192L57.3627 1.952L57.5814 1.96781L58.9013 2.04164C59.0973 2.05821 59.2927 2.07393 59.4878 2.08963L59.49 2.08979C59.8804 2.12123 60.2699 2.1526 60.6616 2.19051L61.5405 2.28288C61.6383 2.29479 61.7368 2.30595 61.8355 2.31713C62.0302 2.33917 62.2258 2.36132 62.4183 2.38958C64.7596 2.69572 67.0972 3.13849 69.4096 3.75956C69.459 3.7727 69.511 3.78603 69.5652 3.79994C69.7148 3.83832 69.8811 3.881 70.0565 3.93598C70.3014 4.01134 70.5701 4.0956 70.8571 4.18119C71.0003 4.22757 71.1496 4.27438 71.305 4.32164C71.3437 4.33524 71.384 4.34717 71.4244 4.35908C71.4648 4.371 71.5051 4.38293 71.5438 4.39653C71.5856 4.41037 71.6258 4.42408 71.666 4.43779L71.7156 4.45465L71.7537 4.4675L71.7883 4.47905C72.1157 4.59637 72.4613 4.71502 72.8186 4.8417C74.2522 5.37042 75.8936 6.06542 77.4898 6.87964C77.8026 7.04305 78.1114 7.21059 78.4167 7.37537C78.5019 7.42138 78.5869 7.46717 78.6715 7.5126C78.6791 7.51641 78.6867 7.52029 78.6943 7.52418C78.7076 7.53102 78.7209 7.53798 78.7342 7.545C78.7487 7.55272 78.7632 7.56052 78.7777 7.56837C78.8041 7.58263 78.8303 7.59704 78.8562 7.61131L78.8643 7.6157C78.8846 7.62694 78.9049 7.63805 78.9249 7.64893C78.9385 7.65634 78.952 7.66362 78.9655 7.67074C79.0265 7.70606 79.0853 7.74122 79.1432 7.77631C79.1798 7.79847 79.2161 7.82062 79.2523 7.84276L79.2531 7.84329C79.3168 7.88222 79.3805 7.92115 79.4442 7.9598C79.4768 7.97959 79.5095 7.99931 79.5422 8.01893C79.6111 8.0603 79.68 8.10116 79.7489 8.14117C79.7707 8.15379 79.7925 8.16633 79.8143 8.17876C80.0014 8.29316 80.183 8.39993 80.3646 8.50673C80.5457 8.62067 80.7268 8.73463 80.9018 8.84814C81.0768 8.96166 81.2457 9.07473 81.4147 9.18781L81.459 9.21841C81.4813 9.23374 81.5037 9.24909 81.5261 9.26443L81.5783 9.30014C81.6884 9.37546 81.7985 9.45077 81.9032 9.52571C83.0385 10.3277 83.9486 11.0847 84.5245 11.5637L84.6388 11.6588L84.7184 11.7248C84.7356 11.74 84.7544 11.7564 84.7747 11.7742L84.7754 11.7748C84.8705 11.8579 84.9991 11.9704 85.1537 12.1237C85.2508 12.2172 85.3534 12.3183 85.4616 12.4269C85.537 12.5081 85.6182 12.5932 85.7029 12.6821C85.7391 12.7201 85.776 12.7588 85.8134 12.7982C86.3062 13.3309 86.8919 14.0144 87.4522 14.797C88.0185 15.5799 88.5598 16.4548 89 17.2935C89.4401 18.1322 89.7846 18.9424 90.01 19.5422C90.252 20.1648 90.4565 20.7992 90.618 21.4376C90.6371 21.5111 90.6618 21.5921 90.6804 21.6727L90.7362 21.9145C90.7734 22.0757 90.8106 22.2368 90.8418 22.3976L90.8419 22.3982L90.8419 22.3986C90.9041 22.7198 90.9663 23.0409 91.0042 23.3603C91.0483 23.6804 91.0796 24.0069 91.1115 24.3262C91.1244 24.4856 91.1312 24.6446 91.1441 24.804L91.1574 25.0427C91.1606 25.082 91.1623 25.1211 91.1632 25.1602C91.1642 25.2003 91.1644 25.2403 91.1646 25.2804L91.1646 25.281C91.1858 25.9165 91.1645 26.549 91.125 27.1801C91.0399 28.4419 90.8293 29.6658 90.5219 30.8755C90.2146 32.0852 89.8111 33.2735 89.3226 34.4557C88.9672 35.3162 88.5817 36.088 88.1754 36.8078C87.7691 37.5277 87.3488 38.1889 86.9052 38.834C86.4616 39.4792 86.0013 40.1015 85.5106 40.7216C85.2681 41.0355 85.0134 41.3484 84.7526 41.661C84.6192 41.817 84.4858 41.9731 84.3518 42.1363C84.2693 42.2244 84.1886 42.3178 84.1074 42.4117L84.1071 42.412L84.1049 42.4144C84.0502 42.4777 83.9952 42.5413 83.9394 42.6036C83.88 42.6713 83.8192 42.7411 83.7566 42.8129L83.7533 42.8165C83.5853 43.0091 83.4049 43.216 83.2074 43.4368L83.1299 43.5176C82.8738 43.785 82.5974 44.0736 82.3152 44.3736C82.2361 44.4544 82.1564 44.5423 82.0773 44.623C81.9982 44.7037 81.913 44.784 81.8278 44.8643C81.6578 45.0245 81.4874 45.1918 81.3169 45.3591L81.3155 45.3604C81.23 45.4444 81.1429 45.5283 81.0558 45.6121L80.9469 45.7171C80.8965 45.7658 80.8464 45.8145 80.7967 45.8632C80.6197 46.0305 80.4372 46.1902 80.2607 46.3504C80.2018 46.4039 80.1428 46.4576 80.0838 46.5113C79.7898 46.7791 79.4957 47.0468 79.2034 47.2897C79.0193 47.4428 78.8384 47.5961 78.6621 47.7456C78.5026 47.8809 78.3467 48.013 78.1954 48.139C77.9251 48.3539 77.6682 48.5597 77.4323 48.7487L77.2945 48.8591C77.2308 48.9086 77.1697 48.9597 77.1101 49.0096C77.0889 49.0274 77.0679 49.045 77.047 49.0623L77.0207 49.084L77.0013 49.0998C76.9713 49.1242 76.9414 49.1477 76.9117 49.17C76.789 49.262 76.6785 49.3549 76.575 49.4339C76.5484 49.4542 76.5079 49.4855 76.4547 49.5267C76.3533 49.6052 76.2055 49.7194 76.0189 49.8619C75.8769 49.9669 75.7086 50.0989 75.5155 50.2362C75.3223 50.3735 75.1099 50.5239 74.8717 50.6939C74.8038 50.741 74.7359 50.7882 74.6669 50.8364C74.6117 50.8751 74.5558 50.9144 74.4986 50.9551C74.4342 51.0009 74.3698 51.0467 74.2993 51.092C74.2351 51.1377 74.1649 51.1829 74.0946 51.2281L74.094 51.2285C74.0627 51.2486 74.0312 51.269 73.9994 51.2896L73.9387 51.3291L73.868 51.3752C73.7969 51.4217 73.7246 51.4692 73.6512 51.5174L73.6324 51.5297C73.4893 51.6237 73.3419 51.7206 73.1903 51.8187C73.1066 51.8775 73.0296 51.9296 72.9464 51.9812C72.9333 51.9894 72.9199 51.9975 72.9065 52.0057C72.8888 52.0165 72.8709 52.0272 72.8529 52.038L72.8175 52.0591C72.7749 52.0846 72.7322 52.1101 72.691 52.1356C72.67 52.1482 72.649 52.1608 72.6279 52.1735L72.6083 52.1854C72.5294 52.2334 72.4502 52.2825 72.3702 52.3322L72.3691 52.3329L72.3658 52.335C72.3002 52.3757 72.234 52.4169 72.1669 52.4579C72.0997 52.4991 72.0316 52.5402 71.9629 52.5817C71.8489 52.6505 71.7333 52.7203 71.6175 52.7928L71.5883 52.8104L71.5584 52.8282L71.5264 52.847L71.5034 52.8604C71.4304 52.9028 71.3573 52.9439 71.2837 52.9854L71.2827 52.9859C71.2018 53.0314 71.1204 53.0773 71.0377 53.1255C69.4701 54.028 67.6315 54.9613 65.6463 55.812C63.661 56.6626 61.5235 57.423 59.3781 58.0388C57.2328 58.6545 55.0785 59.1399 53.0622 59.4913C51.0392 59.8493 49.1603 60.0737 47.5494 60.2238C47.1438 60.2593 46.763 60.2894 46.3943 60.3203C46.3755 60.3219 46.3569 60.3235 46.3385 60.3251L46.2135 60.3362C46.184 60.3389 46.1542 60.3415 46.1239 60.344C46.0317 60.3518 45.9461 60.3528 45.86 60.361C45.7821 60.3651 45.7055 60.3694 45.6295 60.3737C45.5778 60.3767 45.5265 60.3796 45.4753 60.3826L45.3572 60.3895C45.3046 60.3926 45.2525 60.3959 45.2009 60.3991L45.1821 60.4002C44.9216 60.4164 44.6741 60.4317 44.4437 60.4387C44.3521 60.4414 44.2625 60.4443 44.1753 60.4471L44.173 60.4472C43.9927 60.453 43.8226 60.4585 43.6664 60.4617C43.4335 60.4737 43.2253 60.4803 43.0421 60.4814C42.9614 60.4788 42.8865 60.4779 42.817 60.4777C42.7962 60.4776 42.7759 60.4776 42.7561 60.4775L42.7359 60.4775L42.7305 60.4775C42.6762 60.4775 42.6255 60.4775 42.5783 60.4767C42.3276 60.4802 42.1939 60.4705 42.1889 60.4558C42.0096 60.486 41.5462 60.5606 41.0357 60.6101C40.5247 60.6668 39.9712 60.7205 39.6244 60.7026C38.2472 60.6607 36.8473 60.5955 35.419 60.4994C33.9908 60.4034 32.5409 60.2697 31.0637 60.0909C28.1092 59.7332 25.0417 59.1656 21.8823 58.1807C19.6307 57.4776 17.4124 56.568 15.2735 55.4047C14.2041 54.8231 13.157 54.1855 12.1394 53.478C11.6331 53.1316 11.1234 52.7489 10.6268 52.3528C10.1307 51.9495 9.64177 51.5323 9.16653 51.0945C8.21657 50.2118 7.30979 49.2385 6.47813 48.1554C5.64648 47.0722 4.89047 45.8721 4.25974 44.5441C3.63507 43.2166 3.13567 41.7613 2.84351 40.2272C2.69136 39.4598 2.59544 38.6748 2.55471 37.8866C2.55227 37.836 2.54969 37.7872 2.5471 37.7383C2.54538 37.7055 2.54365 37.6727 2.54195 37.6393L2.53951 37.5901L2.53038 37.2941C2.52614 37.0993 2.51635 36.8968 2.52426 36.7029L2.53637 36.113L2.57277 35.5249C2.63844 34.7012 2.75271 33.8809 2.90795 33.0853C3.06319 32.2896 3.27815 31.5127 3.51585 30.759C3.75355 30.0054 4.03223 29.2763 4.33974 28.5709C4.64671 27.8726 4.97748 27.1833 5.32995 26.5316C5.68902 25.8732 6.07084 25.238 6.46325 24.6252C6.86175 24.0128 7.27691 23.4233 7.70318 22.8489C8.12945 22.2746 8.57848 21.7235 9.03253 21.1872C9.48659 20.6509 9.95732 20.1374 10.4392 19.6391C10.5579 19.518 10.677 19.3898 10.8018 19.2691C10.8371 19.2349 10.872 19.2002 10.9067 19.1653L10.9495 19.1222C11.0227 19.0483 11.0954 18.9748 11.17 18.9067L11.8917 18.2168C12.0164 18.0962 12.1346 17.9822 12.2588 17.8687L12.631 17.5354C12.6949 17.4788 12.7588 17.4217 12.8228 17.3644L12.8894 17.3048L12.8901 17.3042C13.0525 17.1587 13.2158 17.0124 13.3815 16.8693L14.1487 16.2259C14.1992 16.1848 14.2488 16.1424 14.2983 16.1002L14.2995 16.0992C14.3768 16.0333 14.4535 15.9678 14.532 15.9078L14.9204 15.6045C15.0287 15.5218 15.1373 15.4365 15.2463 15.3509C15.3974 15.2322 15.5494 15.1128 15.7031 14.9983L16.4965 14.4145C16.7612 14.2175 17.0314 14.0281 17.301 13.8459C17.4357 13.7549 17.5705 13.6621 17.7053 13.5694L17.7082 13.5674C17.8424 13.475 17.9765 13.3826 18.1106 13.2921C18.2866 13.1804 18.4614 13.0672 18.636 12.9541L18.6388 12.9524L18.6394 12.952C19.0098 12.7121 19.379 12.4731 19.7554 12.2511C20.8553 11.567 21.9864 10.9572 23.116 10.3688ZM74.7374 14.2019C74.2615 13.8577 74.7108 14.0631 75.2764 14.3489C75.4671 14.4403 75.6701 14.5522 75.8543 14.6537L75.856 14.6546L75.8577 14.6555L75.858 14.6557C75.9461 14.7043 76.0297 14.7504 76.1056 14.7907C76.3464 14.9234 76.5174 15.0078 76.5184 14.9934C76.5278 14.945 76.1622 14.7121 75.8247 14.4972L75.7982 14.4803C75.7714 14.4623 75.7447 14.4448 75.7184 14.4276L75.698 14.4142L75.6502 14.3832C75.5379 14.3103 75.4379 14.2454 75.3734 14.1902C75.2808 14.1187 75.2601 14.0668 75.3573 14.0738C75.4366 14.1046 75.5099 14.1326 75.5761 14.1562C75.6241 14.1733 75.6684 14.1881 75.7085 14.2C75.8042 14.2286 75.87 14.2477 75.9247 14.2517C76.0219 14.2587 76.0316 14.209 75.9538 14.1025C75.9373 14.0039 75.5444 13.7573 75.144 13.5059L75.1011 13.4789C74.8968 13.3489 74.6924 13.2189 74.5412 13.1143C74.39 13.0097 74.2863 12.9229 74.296 12.8732L74.2487 12.8482L74.2462 12.8469C73.7641 12.5923 73.386 12.3927 73.095 12.2533C72.7934 12.1162 72.5915 12.0368 72.4716 12.0065C72.2377 11.9463 72.3327 12.0685 72.6503 12.322C72.7717 12.4172 73.0431 12.7178 73.0271 12.8535C73.0117 12.9821 72.6974 12.9377 71.6477 12.3359C71.5899 12.3028 71.5344 12.2718 71.4806 12.2418L71.4803 12.2416L71.4279 12.2122L71.404 12.1988C71.3881 12.1899 71.3723 12.181 71.3567 12.1721C71.341 12.1632 71.3254 12.1543 71.31 12.1454C71.2968 12.1378 71.2837 12.1302 71.2707 12.1225L71.2473 12.1087C71.236 12.1019 71.2248 12.0952 71.2137 12.0884C71.0847 12.0143 70.9618 11.9405 70.8566 11.8753C70.6401 11.7444 70.4656 11.6237 70.3209 11.5124C70.2548 11.4615 70.1935 11.4139 70.136 11.369C70.0677 11.3156 70.0047 11.266 69.9452 11.2187C69.836 11.1243 69.7384 11.038 69.6408 10.9517C69.4401 10.7715 69.2217 10.5828 68.86 10.3477C68.6789 10.2338 68.4619 10.11 68.1913 9.96798C68.0562 9.89338 67.909 9.8179 67.7435 9.74109C67.6611 9.69911 67.5786 9.65713 67.4901 9.61471C67.4335 9.58759 67.3742 9.56321 67.3125 9.53786C67.2776 9.52354 67.242 9.50891 67.2057 9.49329C67.0962 9.44619 66.9814 9.39658 66.8643 9.34583L66.5661 9.2165C66.4536 9.17244 66.3416 9.12125 66.2296 9.07006L66.2287 9.06965C66.1694 9.04374 66.1163 9.0183 66.0566 8.99956L65.8846 8.9295C65.421 8.75189 64.9641 8.56757 64.5786 8.41001C63.8003 8.10881 63.2979 7.87798 63.5931 7.84889C63.6914 7.84157 63.909 7.87173 64.1981 7.92864C64.3428 7.95353 64.4992 7.98644 64.6673 8.0274C64.8353 8.06838 65.0094 8.10978 65.1896 8.15162C65.5434 8.24203 65.9099 8.32617 66.2222 8.39918C66.5339 8.47935 66.7926 8.53407 66.9384 8.54461C67.3858 8.57153 67.3178 8.39473 67.2539 8.22854C67.2327 8.17338 67.2119 8.11938 67.2106 8.07441C67.2092 8.00945 67.2017 7.94408 66.9907 7.82077C66.885 7.76269 66.7256 7.68634 66.4949 7.5832C66.2637 7.48723 65.9479 7.37795 65.5425 7.24058C64.9377 7.04057 64.3307 6.85101 63.7216 6.67202C63.8336 6.69425 63.9511 6.71716 64.0765 6.73835C65.1406 6.91339 66.43 7.18243 67.4919 7.40399L67.4935 7.40434C67.6567 7.43839 67.8145 7.47131 67.9652 7.50258C68.2017 7.55164 68.4209 7.59668 68.6164 7.63571C68.8336 7.67304 69.0143 7.70771 69.1646 7.7402C69.211 7.75247 69.2545 7.76384 69.2955 7.77455C69.3868 7.79844 69.4659 7.81913 69.5361 7.8391C69.7339 7.89543 69.8513 7.94596 69.9502 7.98851L69.9586 7.99212L69.9931 8.00951C70.0232 8.0247 70.0523 8.03937 70.0822 8.05431C70.137 8.08173 70.1943 8.10999 70.2652 8.14397C70.2896 8.15378 70.3147 8.16465 70.3415 8.17628C70.3693 8.1883 70.3989 8.20111 70.4314 8.2144C70.441 8.21832 70.4508 8.22228 70.4609 8.22626C70.4724 8.23078 70.4842 8.23534 70.4965 8.23993C70.5916 8.27562 70.7044 8.3198 70.8416 8.36574C71.1811 8.48395 71.4504 8.56104 71.6842 8.62117C71.7668 8.64202 71.8439 8.65907 71.9191 8.67727C71.9531 8.6855 71.9867 8.69396 72.0203 8.70312C72.1281 8.73251 72.2298 8.76147 72.331 8.79762C72.534 8.86271 72.7485 8.93587 72.997 9.04749C73.1209 9.10687 73.257 9.16714 73.4098 9.25023C73.4924 9.29676 73.5804 9.34825 73.6739 9.4047C73.7158 9.42998 73.7588 9.45627 73.8028 9.48356C73.8351 9.50356 73.868 9.52408 73.9015 9.54514C73.9847 9.59085 74.1013 9.64792 74.2392 9.71546L74.2403 9.716L74.3553 9.77247L74.3686 9.7785C74.3862 9.78652 74.4043 9.79482 74.4226 9.80334L74.4704 9.82557L74.5119 9.84497L74.517 9.84731C74.5658 9.87014 74.6165 9.89382 74.6685 9.91758C74.6985 9.93128 74.7284 9.94602 74.7585 9.96138C74.8411 10.0035 74.9252 10.0505 75.016 10.094C75.0761 10.1234 75.1369 10.1538 75.1984 10.1847C75.2573 10.2144 75.3168 10.2447 75.3767 10.2752C75.5058 10.3408 75.6372 10.4077 75.7704 10.4727C75.8397 10.5086 75.9093 10.5424 75.9778 10.5763C76.0373 10.6057 76.096 10.6352 76.1534 10.6661L76.1559 10.6675C76.2785 10.7336 76.4011 10.7997 76.5176 10.8653C76.7528 10.9904 76.9765 11.1074 77.1652 11.2003C77.2593 11.2504 77.3478 11.2928 77.4247 11.3272C77.5011 11.3687 77.5659 11.4022 77.619 11.4277C77.8315 11.5295 77.8513 11.5093 77.5564 11.279C77.0456 10.9107 76.8378 10.7444 76.8409 10.7014C76.8379 10.658 77.0459 10.7378 77.352 10.8969C77.379 10.9116 77.4068 10.9263 77.4354 10.9415L77.439 10.9434L77.4445 10.9463L77.4681 10.9588L77.4961 10.9737C77.5088 10.9805 77.5216 10.9874 77.5345 10.9944C77.5556 11.0059 77.5771 11.0177 77.5989 11.03C77.6869 11.0796 77.7744 11.1363 77.868 11.1935C78.0551 11.3079 78.2473 11.4371 78.4451 11.5738C78.835 11.8398 79.2108 12.1335 79.4671 12.3898C79.625 12.5416 79.656 12.6131 79.6864 12.6831C79.6956 12.7042 79.7047 12.7252 79.7172 12.7483C79.7292 12.7703 79.7443 12.7943 79.7656 12.822C79.8272 12.8985 79.9359 13 80.1493 13.1739C80.3627 13.3479 80.6803 13.6013 81.1597 13.9818C81.5 14.2586 82.0421 14.7012 82.49 15.0938C82.5423 15.1378 82.5932 15.1818 82.6425 15.2248C82.6879 15.2643 82.7318 15.303 82.7741 15.3403C82.8834 15.4367 82.9818 15.5234 83.0649 15.5892C83.2085 15.7149 83.3071 15.7868 83.3153 15.7586C83.443 15.8772 83.592 16.0374 83.7556 16.2133L83.8152 16.2774C83.9956 16.485 84.1811 16.7073 84.3549 16.9216C84.3999 16.9753 84.4449 17.029 84.4838 17.0822C84.5227 17.1355 84.5676 17.1892 84.6071 17.2352C84.6854 17.3345 84.7642 17.4267 84.8314 17.5108C84.9658 17.679 85.079 17.8025 85.1483 17.8579C85.1803 17.8833 85.1932 17.8578 85.2081 17.8279C85.2445 17.7554 85.2936 17.6576 85.6607 18.2047C85.738 18.3184 85.8031 18.4311 85.8632 18.5292C85.8974 18.5849 85.9276 18.6404 85.9564 18.6931C85.9781 18.733 85.9991 18.7714 86.0202 18.8071C86.1116 18.9794 86.1746 19.1208 86.2155 19.2318C86.2971 19.4539 86.3025 19.5479 86.2428 19.5292C86.1233 19.5001 85.8091 19.0557 85.3238 18.3696L85.3236 18.3693L85.2418 18.2537C85.3964 18.481 85.6166 18.8139 85.8671 19.2355C86.1115 19.6566 86.3916 20.1739 86.6489 20.7544C86.9062 21.335 87.1522 21.9867 87.3404 22.6775C87.5347 23.3688 87.6713 24.0991 87.7475 24.8178C87.8996 26.2625 87.7666 27.6793 87.5655 28.6877C87.4618 29.1918 87.3528 29.6017 87.2592 29.8831C87.2124 30.0238 87.1742 30.1291 87.1387 30.1986C87.1031 30.2681 87.0823 30.3026 87.0646 30.2941C86.9984 30.5201 86.9373 30.7252 86.8822 30.9101C86.762 31.3137 86.6705 31.621 86.617 31.8395C86.5329 32.1576 86.5296 32.287 86.594 32.2413C86.5154 32.3054 86.3464 32.625 86.1054 33.0811C85.9487 33.3776 85.7616 33.7317 85.5489 34.1109C85.2817 34.5958 84.975 35.1212 84.6572 35.6313C84.3394 36.1415 84.01 36.6435 83.7095 37.0829L83.5716 37.2866C83.2783 37.72 83.0544 38.0507 82.8811 38.3198C82.6811 38.6367 82.5354 38.8783 82.4034 39.0993C82.1388 39.5485 81.9048 39.9134 81.26 40.6376C81.2465 40.6514 81.2323 40.6671 81.2173 40.684L81.2048 40.6982L81.1917 40.7131C81.1623 40.7467 81.13 40.7835 81.0942 40.8201C81.0634 40.8515 81.0312 40.8859 80.9968 40.9225C80.9574 40.9644 80.9152 41.0094 80.8695 41.056C80.7041 41.2314 80.5058 41.4404 80.2882 41.6624C80.2688 41.6822 80.2495 41.7023 80.2302 41.7226C80.215 41.7386 80.1999 41.7547 80.1847 41.7709L80.1567 41.8007C80.0892 41.8728 80.0204 41.9463 79.9448 42.0194C79.935 42.0294 79.9252 42.0393 79.9152 42.0493L79.8909 42.0736L79.8684 42.0959C79.8564 42.1076 79.8444 42.1194 79.8323 42.1312C79.8001 42.1626 79.7675 42.194 79.7347 42.2258L79.6972 42.2622C79.6829 42.2762 79.6685 42.2902 79.6542 42.3043C79.6427 42.3156 79.6312 42.327 79.6197 42.3384C79.6031 42.355 79.5865 42.3717 79.57 42.3885C79.4447 42.5163 79.3134 42.6437 79.182 42.7711L79.1564 42.796L79.1382 42.8138L79.0825 42.8685L79.0817 42.8692L79.0552 42.8953L79.02 42.9298C78.9996 42.9497 78.9792 42.9696 78.9586 42.9894C78.9004 43.0455 78.8417 43.1005 78.7819 43.1528C78.6524 43.2693 78.5235 43.3862 78.396 43.502C77.9832 43.8765 77.5844 44.2383 77.2226 44.5314C77.1408 44.5986 77.062 44.6644 76.9866 44.7277C76.9321 44.7734 76.8794 44.8179 76.8286 44.8608L76.7031 44.9667C76.6693 44.995 76.6367 45.0224 76.6051 45.0487C76.4665 45.1638 76.345 45.2532 76.2524 45.3214L76.2511 45.3224L76.2499 45.3233L76.2492 45.3237C76.2258 45.3409 76.2042 45.3567 76.1848 45.3713C75.8669 45.603 75.7571 45.6627 75.6307 45.7313L75.6019 45.747C75.5319 45.7852 75.4488 45.8368 75.3266 45.9216C75.2841 45.9511 75.2354 45.9837 75.1792 46.0213C75.0739 46.0918 74.942 46.1801 74.7741 46.2995C74.62 46.4036 74.4654 46.5149 74.3108 46.6262C74.2879 46.6419 74.2652 46.6579 74.2426 46.6739C74.2315 46.6817 74.2205 46.6895 74.2094 46.6974L74.1708 46.725L74.0639 46.8018L74.0369 46.8212L74.0073 46.8423C73.9879 46.8562 73.9684 46.8699 73.9488 46.8836C73.9091 46.9114 73.869 46.9389 73.8282 46.9659C73.4946 47.1868 73.1545 47.4143 72.8017 47.6482C72.6318 47.7575 72.4577 47.8665 72.2813 47.9769C72.1926 48.0324 72.1034 48.0883 72.0137 48.1448C71.9119 48.209 71.8097 48.2739 71.7074 48.3399C71.6594 48.3689 71.6131 48.3979 71.5667 48.427C71.5203 48.4561 71.474 48.4851 71.426 48.5141C71.3303 48.572 71.2345 48.6299 71.1392 48.6807C71.089 48.711 71.0384 48.7413 70.9876 48.7716L70.8485 48.8543C70.7995 48.8834 70.7505 48.9125 70.7017 48.9416C70.6537 48.9703 70.6058 48.999 70.5584 49.0277C68.9897 49.9445 67.289 50.8301 65.5651 51.6132C63.8473 52.3968 62.1064 53.0778 60.4836 53.6449C58.8548 54.2115 57.3447 54.657 56.0782 55.0265C56.4845 54.8974 56.17 54.9395 55.4639 55.0758C55.3814 55.0938 55.2921 55.1113 55.1978 55.1292C55.1593 55.1365 55.12 55.1438 55.08 55.1513L54.9695 55.1721L54.9127 55.1829L54.8693 55.1913C54.7889 55.2068 54.7052 55.2222 54.6188 55.2376C54.5675 55.2468 54.5153 55.256 54.4622 55.2654L54.4616 55.2656L54.4397 55.2694C54.3479 55.2857 54.2537 55.3023 54.1577 55.3199C54.0788 55.3344 53.9986 55.3495 53.9175 55.3647L53.9157 55.365L53.9134 55.3655C53.8302 55.3811 53.7459 55.397 53.6608 55.4125C53.5633 55.4304 53.4648 55.4479 53.3655 55.4644L53.2276 55.4865L53.2268 55.4866C52.9933 55.524 52.7562 55.562 52.5187 55.6049C51.3685 55.8027 50.1601 55.9603 49.2424 56.0668C49.014 56.1008 48.7988 56.1212 48.6083 56.1363C48.4174 56.1585 48.2513 56.1753 48.1161 56.1871C47.8391 56.2175 47.679 56.2348 47.679 56.2348C47.6514 56.2367 47.6239 56.2386 47.5964 56.2403C47.5552 56.243 47.5142 56.2454 47.4734 56.2477C47.4078 56.2514 47.3427 56.2547 47.2781 56.258C47.1173 56.2662 46.9601 56.2743 46.808 56.2871C46.526 56.3027 46.2561 56.3192 45.9917 56.3433C45.4646 56.37 44.9612 56.4057 44.4695 56.4494C44.1502 56.4685 43.8331 56.4939 43.5151 56.5193L43.2183 56.5429C43.1463 56.5485 43.0742 56.554 43.0019 56.5594C42.8816 56.5681 42.7609 56.5768 42.6396 56.5856L42.6245 56.5867C42.249 56.6138 41.8667 56.6414 41.467 56.6718C40.5566 56.7314 40.0646 56.6984 39.4096 56.6545C39.0493 56.6303 38.6396 56.6028 38.0838 56.5856C36.5365 56.5314 34.6859 56.448 32.829 56.285C30.978 56.1223 29.1212 55.8728 27.5622 55.5584C27.5588 55.5581 27.546 55.5561 27.5244 55.5523C27.5056 55.549 27.4803 55.5443 27.4488 55.5384L27.4009 55.5293C27.3793 55.5251 27.3557 55.5205 27.3301 55.5155C27.2897 55.5076 27.2444 55.4986 27.1947 55.4886C26.972 55.4437 26.6592 55.3778 26.28 55.3C25.5289 55.1304 24.5207 54.8846 23.4923 54.5797C22.4639 54.2748 21.4093 53.9104 20.5491 53.5601C19.6823 53.2164 19.0094 52.894 18.7033 52.735C18.7583 52.8032 18.8602 52.9091 18.9561 53.0087L18.9566 53.0093C18.9947 53.0488 19.0318 53.0874 19.0646 53.1222C19.0933 53.1526 19.1188 53.1802 19.1387 53.2031C19.0054 53.0838 18.5863 52.8481 17.9953 52.5159L17.9947 52.5156C17.8034 52.408 17.594 52.2903 17.3705 52.1632C16.8404 51.8703 16.245 51.5034 15.6097 51.1119L15.5733 51.0895C14.9309 50.6828 14.2612 50.231 13.6109 49.7661C12.9665 49.3016 12.3486 48.8103 11.7965 48.3381C11.2443 47.866 10.7585 47.4058 10.3586 47.0239C10.271 46.9441 10.1921 46.865 10.118 46.7906L10.079 46.7515C10.0436 46.7161 10.008 46.6819 9.97332 46.6484L9.97231 46.6474C9.94393 46.6201 9.91612 46.5933 9.88933 46.5668C9.87024 46.5479 9.85168 46.5292 9.83384 46.5105C9.80979 46.4852 9.78625 46.4616 9.76328 46.439C9.74091 46.417 9.71909 46.396 9.69783 46.3755L9.69618 46.3739L9.6942 46.372C9.6811 46.3594 9.66819 46.347 9.65551 46.3347L9.64233 46.3219L9.62861 46.3083C9.60852 46.2884 9.58963 46.2693 9.57153 46.251C9.53316 46.2122 9.49835 46.177 9.4633 46.1451C9.26866 45.9653 9.18063 45.9157 9.23155 46.0563C8.79394 45.5203 8.54489 45.1637 8.37418 44.9064C8.234 44.6952 8.1507 44.5512 8.07424 44.419C8.06165 44.3972 8.04925 44.3757 8.03682 44.3544L8.02473 44.3336C8.01455 44.3151 8.00428 44.2966 7.99384 44.278C7.98687 44.2656 7.97982 44.2531 7.97267 44.2405C7.96468 44.2265 7.95656 44.2123 7.94829 44.198C7.92869 44.1639 7.90818 44.1286 7.88627 44.0908C7.83275 43.9987 7.77093 43.8922 7.69403 43.755C7.65617 43.6874 7.61274 43.6122 7.56377 43.5295C7.5508 43.5046 7.53677 43.4789 7.52203 43.4524C7.48799 43.3912 7.45015 43.3251 7.41282 43.252C7.35325 43.1468 7.29419 43.0345 7.23009 42.9074C7.18863 42.832 7.14964 42.7518 7.10812 42.6663C7.07938 42.6072 7.04945 42.5456 7.01662 42.4813C6.87886 42.1904 6.74267 41.878 6.60855 41.5369C6.4805 41.1962 6.35348 40.8412 6.24625 40.466C6.0252 39.7224 5.86451 38.9039 5.7894 38.0844C5.70823 37.2645 5.71312 36.4364 5.78732 35.6636C5.86151 34.891 5.99786 34.1876 6.15733 33.5868C6.47577 32.3923 6.8477 31.3025 7.21935 30.3856C7.59099 29.4687 7.96184 28.7319 8.26594 28.2424C8.56241 27.7739 8.95521 27.2404 9.40734 26.6463C9.85947 26.0522 10.3659 25.3828 10.9039 24.6148C11.1592 24.2082 11.2472 24.0057 11.1682 24C11.2088 23.9453 11.4934 23.6417 11.9138 23.2326C12.3342 22.8235 12.8839 22.3157 13.4685 21.8321C13.6496 21.6802 13.8304 21.5311 14.0082 21.3845C14.0605 21.3414 14.1125 21.2985 14.1642 21.2559C14.2207 21.2092 14.2769 21.1627 14.3325 21.1165C14.4984 20.9899 14.6578 20.8653 14.8094 20.7468C14.9178 20.6621 15.0221 20.5805 15.1219 20.5036C15.3294 20.3391 15.5204 20.202 15.6689 20.0954L15.7222 20.0571C15.7641 20.0264 15.8022 19.9983 15.8363 19.9731L15.8379 19.9719L15.8383 19.9716C15.9341 19.9009 15.9986 19.8533 16.0314 19.8345C16.1739 19.7268 16.3298 19.6086 16.496 19.4824C16.7016 19.3263 16.9231 19.1579 17.1546 18.9818C17.6271 18.6226 18.1416 18.2315 18.6484 17.848C19.6157 17.1399 20.5692 16.4524 21.1724 16.0493C21.3271 15.938 21.4878 15.8272 21.6484 15.7163C21.8091 15.6055 21.9698 15.4946 22.1417 15.399C22.4797 15.2001 22.8178 15.0012 23.1548 14.8167C23.243 14.7711 23.3307 14.7255 23.4181 14.6801L23.6876 14.5395C23.7562 14.5037 23.8245 14.468 23.8926 14.4325C23.9835 14.3851 24.0739 14.3382 24.1638 14.2916C24.2625 14.2385 24.3586 14.1904 24.4539 14.1427L24.4544 14.1424C24.5184 14.1104 24.582 14.0785 24.6457 14.0455C24.8043 13.9633 24.9564 13.8879 25.1084 13.8124C25.5666 13.568 25.6213 13.5122 25.6873 13.445C25.7018 13.4302 25.7169 13.4148 25.7369 13.3968C25.7952 13.3506 25.8921 13.2783 26.1206 13.158C26.2352 13.0942 26.3872 13.0188 26.5833 12.9249C26.7071 12.8656 26.8506 12.802 27.0158 12.7289L27.0182 12.7278C27.1064 12.6888 27.2007 12.6471 27.3014 12.6017C27.2775 12.6132 27.2921 12.6098 27.3377 12.5947C27.3928 12.5766 27.4931 12.5415 27.6256 12.4952L27.63 12.4937C27.9181 12.393 28.3562 12.2399 28.8116 12.0918C28.841 12.0826 28.8704 12.0729 28.8998 12.063C28.9392 12.0497 28.9784 12.036 29.0172 12.0224L29.0192 12.0217C29.0392 12.0147 29.0591 12.0078 29.0788 12.0009C29.1006 11.9934 29.1221 11.986 29.1434 11.9789L29.2326 11.951C29.315 11.9252 29.3965 11.8993 29.4747 11.8732C29.5764 11.8426 29.6766 11.8119 29.7727 11.7825C29.8398 11.7619 29.9049 11.742 29.967 11.7232C30.0016 11.7126 30.0353 11.7025 30.068 11.6927C30.1034 11.6821 30.1376 11.6718 30.1704 11.6617C30.201 11.6523 30.2304 11.6432 30.2587 11.6345C30.3496 11.6064 30.4281 11.5822 30.4925 11.5649C30.5406 11.552 30.5784 11.5414 30.6054 11.5336C30.6378 11.5243 30.6546 11.519 30.6546 11.519C30.6652 11.5414 30.8957 11.4788 31.2397 11.3668C31.3168 11.3438 31.3989 11.3169 31.4854 11.2886C31.5949 11.2528 31.7114 11.2147 31.8334 11.1792C31.8535 11.1727 31.8738 11.1662 31.8942 11.1598C31.9261 11.1497 31.9584 11.1396 31.9909 11.1294C32.0706 11.1047 32.1521 11.0799 32.2351 11.0546L32.4146 10.9998L32.4534 10.9879C32.4799 10.9797 32.5064 10.9715 32.533 10.9632C32.5924 10.9447 32.6519 10.9257 32.7113 10.9066C32.7437 10.8962 32.776 10.8858 32.8083 10.8753L32.9091 10.8428C33.0265 10.8051 33.1431 10.7682 33.258 10.7347C33.3206 10.7164 33.3827 10.6985 33.4441 10.681L33.5494 10.6511L33.5576 10.6488C33.6888 10.6116 33.8163 10.5755 33.9378 10.5389L33.979 10.527C34.3778 10.4114 34.6979 10.3187 34.8537 10.2881C35.1061 10.228 35.3587 10.1656 35.6102 10.1034L35.6128 10.1028L35.6164 10.1019L35.6209 10.1008C35.8053 10.0552 35.9891 10.0098 36.1717 9.96554C36.6063 9.8673 37.0414 9.76187 37.4705 9.65602C37.8782 9.59183 38.2352 9.55281 38.5553 9.51831C38.6861 9.50422 38.8044 9.49402 38.917 9.4843L38.9918 9.47783C39.0388 9.47621 39.0842 9.47448 39.1284 9.47266C39.2112 9.46924 39.2896 9.46554 39.3655 9.46162C39.4774 9.44486 39.7075 9.36687 39.9494 9.28482L39.9498 9.28468L39.9619 9.28057C39.9962 9.26895 40.0307 9.25725 40.0651 9.24565C40.203 9.19797 40.3342 9.15704 40.44 9.12868C40.5459 9.10031 40.6265 9.08451 40.6502 9.09344L40.7225 9.19233C40.9539 9.20185 41.0703 9.19585 41.1139 9.18459C41.402 9.1694 41.7408 9.12906 42.1045 9.08331C42.4676 9.04472 42.8565 8.9864 43.2521 8.92134C43.356 8.90238 43.4597 8.88739 43.5642 8.87225L43.5646 8.87216L43.565 8.87208L43.5691 8.87151C43.6335 8.86219 43.6982 8.8528 43.7636 8.8424C43.7927 8.83776 43.8219 8.83291 43.8513 8.82779C43.9498 8.81333 44.0485 8.79713 44.1472 8.78091L44.1478 8.78078C44.2467 8.76452 44.3456 8.74826 44.4443 8.73377C44.4902 8.72671 44.5362 8.71885 44.5821 8.71054C44.6129 8.70498 44.6435 8.69924 44.6742 8.69342L44.7076 8.68704L44.7479 8.67928L44.7485 8.67915L44.7488 8.67906C44.7977 8.66966 44.8465 8.66025 44.8947 8.65142C44.9346 8.64412 44.9743 8.63716 45.0136 8.63086C45.199 8.60103 45.3783 8.57077 45.5515 8.54006C45.8919 8.47822 46.2014 8.42134 46.4556 8.36769C46.7094 8.3212 46.9085 8.27074 47.0336 8.22938C47.2778 8.14616 47.2207 8.09159 46.6956 8.08967C46.9418 8.08892 47.1742 8.09249 47.3932 8.09586L47.5012 8.09748C47.6293 8.09953 47.7513 8.10115 47.8672 8.10232C47.9264 8.10312 47.9839 8.10547 48.04 8.10778L48.0407 8.10783C48.1002 8.11029 48.1581 8.11267 48.2146 8.11304L48.3695 8.11934C48.7685 8.13548 49.1468 8.1508 49.5294 8.17208C49.9156 8.2 50.3168 8.22322 50.7588 8.24879L50.9157 8.25789C51.1708 8.27634 51.4381 8.29567 51.7232 8.32348C51.7904 8.32834 51.859 8.33286 51.9289 8.33747L51.9381 8.33814C52.1626 8.35302 52.4009 8.36883 52.6522 8.39786C52.9615 8.42743 53.4095 8.48142 53.9173 8.55415C53.9797 8.56399 54.0428 8.5743 54.1065 8.58488C54.1562 8.59312 54.2061 8.60152 54.2565 8.60999C54.4043 8.63482 54.5551 8.66016 54.708 8.68336C54.8406 8.70736 54.9793 8.73179 55.1185 8.74906C55.1848 8.76106 55.2572 8.7735 55.3235 8.78551C55.3433 8.78909 55.3631 8.79267 55.3831 8.79646C55.4299 8.80535 55.4776 8.81535 55.528 8.8291C55.6375 8.85192 55.7472 8.87351 55.8551 8.89477C56.008 8.92489 56.1575 8.95434 56.2984 8.98565C56.5454 9.03234 56.7681 9.07726 56.9666 9.12042C57.3312 9.19975 57.6044 9.26031 57.7209 9.28615L57.7412 9.29065L57.7481 9.29219C57.8495 9.30732 57.9403 9.31958 58.0234 9.33031C58.0939 9.33941 58.1588 9.34741 58.2199 9.35513C58.353 9.37194 58.4624 9.37985 58.5601 9.37972C58.681 9.38398 58.7814 9.37846 58.8796 9.37307L58.8802 9.37306L58.8806 9.37303C58.9405 9.36975 58.9995 9.3665 59.0619 9.36557C59.227 9.36309 59.4103 9.36195 59.6882 9.40364C59.9661 9.44534 60.332 9.53665 60.865 9.68324C61.0087 9.72244 61.1342 9.76035 61.2471 9.80452C61.3599 9.8487 61.455 9.88439 61.5319 9.91876C61.6918 9.98797 61.797 10.0532 61.8608 10.101C61.9877 10.2039 61.941 10.2581 61.8357 10.2793C62.0573 10.3386 62.2674 10.3898 62.4719 10.4334C62.5067 10.441 62.5411 10.4485 62.5751 10.456L62.6368 10.4696C62.774 10.4997 62.9041 10.5284 63.0251 10.5526C63.3627 10.6131 63.6351 10.6472 63.8184 10.646C64.185 10.6437 64.1872 10.5286 63.623 10.3077C62.8658 10.0136 63.1135 9.98569 63.3747 9.95626L63.3954 9.95393L63.4241 9.95059C63.4373 9.94904 63.4503 9.94742 63.4631 9.94573C63.4713 9.94464 63.4795 9.9435 63.4875 9.94233C63.5025 9.94014 63.517 9.93779 63.5307 9.93523C63.55 9.93164 63.5679 9.92763 63.5836 9.92302C63.6215 9.99059 63.7246 10.0845 63.8819 10.1895C63.9137 10.2115 63.9474 10.2337 63.9832 10.2564C64.0124 10.2749 64.0431 10.2938 64.0754 10.3133C64.1049 10.3312 64.1358 10.3496 64.1682 10.3687L64.2059 10.391C64.3072 10.4509 64.4182 10.5165 64.5436 10.5832C64.8198 10.7328 65.1562 10.894 65.5529 11.0668C65.943 11.2463 66.3934 11.4373 66.9044 11.6328C67.249 11.7707 67.1857 11.6753 67.1064 11.5555C67.0846 11.5226 67.0616 11.4879 67.0455 11.4557C66.9769 11.3066 67.0576 11.2044 68.1101 11.5975C68.2229 11.6417 68.3419 11.6863 68.4669 11.7313C68.5913 11.7836 68.7153 11.843 68.8519 11.896C69.118 12.0162 69.3958 12.1443 69.6852 12.2805C69.8019 12.3345 69.9145 12.3926 70.0292 12.4519L70.0759 12.476L70.1213 12.4993C70.2685 12.5748 70.4158 12.6503 70.5691 12.7262C70.5997 12.7419 70.6306 12.7577 70.6616 12.7735C70.6898 12.7878 70.7183 12.8023 70.7466 12.8168C70.775 12.8313 70.8034 12.846 70.8317 12.8607C70.8789 12.8853 70.926 12.9103 70.9726 12.9359C70.9872 12.944 71.0018 12.9521 71.0163 12.9603C71.0387 12.9725 71.0612 12.9841 71.0835 12.9954L71.1131 13.0102L71.1134 13.0104C71.1383 13.023 71.163 13.0353 71.1871 13.0481C71.205 13.0576 71.2227 13.0672 71.2399 13.0773C71.2608 13.0887 71.2811 13.1 71.3013 13.1113C71.3181 13.1206 71.3347 13.13 71.3513 13.1393C71.388 13.16 71.4247 13.1807 71.463 13.2015C71.6276 13.2942 71.7923 13.3847 71.955 13.474L71.9567 13.4749C72.0834 13.5445 72.2089 13.6134 72.3321 13.6822C72.4024 13.7233 72.4732 13.7572 72.5435 13.7983C72.5597 13.8078 72.5756 13.8172 72.5913 13.8266L72.5955 13.829C72.6096 13.8374 72.6236 13.8458 72.6377 13.854C72.6489 13.8606 72.6602 13.8671 72.6715 13.8734C72.6968 13.8877 72.7224 13.9013 72.7489 13.914C72.8836 13.9884 73.0123 14.0624 73.1409 14.1364L73.142 14.137C73.3944 14.2777 73.6352 14.4104 73.8528 14.527C73.9124 14.5589 73.9697 14.5901 74.025 14.6202C74.1715 14.7 74.3033 14.7718 74.4234 14.8276C74.4705 14.8526 74.3835 14.7887 74.2267 14.6765C74.198 14.6566 74.1678 14.6357 74.1359 14.6138C74.0774 14.5737 74.0131 14.5301 73.9414 14.4829C73.8903 14.4493 73.8378 14.4155 73.7841 14.381C73.7498 14.359 73.7151 14.3366 73.6799 14.3138C73.6507 14.2949 73.6213 14.2756 73.5914 14.2559L73.4099 14.1414C72.9729 13.8656 72.5361 13.5899 72.422 13.5374C72.3395 13.4954 72.34 13.4882 72.4119 13.5078C72.4837 13.5275 72.6264 13.581 72.8101 13.6591C72.9938 13.7372 73.225 13.8332 73.4856 13.9457L73.5297 13.9647L73.5304 13.965C73.7786 14.0721 74.0467 14.1877 74.3134 14.3225C75.4649 14.8668 76.6653 15.5804 76.6351 15.7439C76.454 15.63 75.9512 15.3198 75.4894 15.0343C75.0266 14.7631 74.6037 14.5308 74.5955 14.559C74.5848 14.6231 74.8518 14.8153 75.2256 15.0513C75.5994 15.2872 76.0789 15.5812 76.5135 15.8216C76.625 15.8799 76.7244 15.9374 76.8238 15.9949L76.8246 15.9954C76.9243 16.053 77.0183 16.103 77.1008 16.145C77.2713 16.2366 77.4135 16.2973 77.503 16.3254C77.6822 16.3816 77.658 16.2934 77.2738 15.9486C77.1075 15.7997 76.9052 15.641 76.6897 15.4957C76.5383 15.3883 76.3776 15.2839 76.2143 15.1778L76.2128 15.1768C76.1448 15.1326 76.0763 15.0881 76.0079 15.043C75.8911 14.9697 75.7748 14.8892 75.664 14.8164C75.6058 14.7762 75.5532 14.7435 75.495 14.7033C75.46 14.6836 75.4274 14.6615 75.3955 14.6399L75.395 14.6396C75.3737 14.6251 75.3527 14.6109 75.3317 14.5979C75.1041 14.4517 74.9058 14.3221 74.7374 14.2019ZM60.2992 5.76645C60.4449 5.80379 60.5663 5.83758 60.6693 5.8685C60.5045 5.83013 60.3395 5.79253 60.1744 5.75572L60.2063 5.75821C60.217 5.75906 60.2278 5.75996 60.2387 5.7609C60.2585 5.76262 60.2787 5.76447 60.2992 5.76645Z" fill="#FF7597"/>
<path d="M7.28581 19.2454C7.30654 19.2232 7.32576 19.2023 7.34349 19.1826C7.32434 19.2033 7.3051 19.2241 7.28581 19.2454Z" fill="#FF7597"/>
<path d="M53.3448 3.80116L53.3257 3.72774L53.368 3.90371L53.3448 3.80116Z" fill="#FF7597"/>
<path d="M24.2499 9.04598C23.7868 9.1998 23.6709 9.19863 23.9142 9.04331C23.892 9.01289 24.0572 8.92398 24.2654 8.83096C24.3723 8.78828 24.498 8.73972 24.6171 8.69789C24.6802 8.67574 24.7431 8.65559 24.8032 8.63725C24.8565 8.62098 24.9075 8.60616 24.9544 8.59262C25.1535 8.54216 25.2832 8.52272 25.2056 8.58195C25.1671 8.60799 25.0779 8.65917 24.9259 8.73463C24.7802 8.80694 24.5712 8.90114 24.2874 9.02906L24.2847 9.03031L24.2499 9.04598Z" fill="#FF7597"/>
<path d="M18.8459 11.004C18.8443 11.0088 18.8433 11.0134 18.843 11.0181C18.8313 11.01 18.8263 10.9952 18.8648 10.9692L18.8627 10.9724L18.8608 10.9754C18.8568 10.9816 18.8536 10.9871 18.8509 10.9923C18.8497 10.9947 18.8486 10.9971 18.8476 10.9994C18.847 11.0009 18.8464 11.0024 18.8459 11.004Z" fill="#FF7597"/>
<path d="M18.843 11.0181C18.8419 11.0324 18.848 11.0328 18.8541 11.0333C18.8358 11.032 18.8551 11.0189 18.843 11.0181Z" fill="#FF7597"/>
</svg>
