<svg width="20" height="20" viewBox="0 0 20 20" fill="none" xmlns="http://www.w3.org/2000/svg">
<path fill-rule="evenodd" clip-rule="evenodd" d="M9.9998 0.299805C10.3864 0.299805 10.6998 0.613205 10.6998 0.999805V3.46649H14.1665C14.5531 3.46649 14.8665 3.77989 14.8665 4.16649C14.8665 4.55309 14.5531 4.86649 14.1665 4.86649H7.91647C7.32857 4.86649 6.76476 5.10003 6.34905 5.51574C5.93335 5.93144 5.6998 6.49526 5.6998 7.08316C5.6998 7.67105 5.93335 8.23487 6.34905 8.65058C6.76476 9.06628 7.32857 9.29982 7.91647 9.29982H12.0831C13.0423 9.29982 13.9623 9.68087 14.6405 10.3591C15.3188 11.0374 15.6998 11.9573 15.6998 12.9165C15.6998 13.8757 15.3188 14.7956 14.6405 15.4739C13.9623 16.1521 13.0423 16.5332 12.0831 16.5332H10.6998L10.6998 18.9998C10.6998 19.3864 10.3864 19.6998 9.9998 19.6998C9.61321 19.6998 9.2998 19.3864 9.2998 18.9998V16.5332H4.9998C4.61321 16.5332 4.2998 16.2198 4.2998 15.8332C4.2998 15.4466 4.61321 15.1332 4.9998 15.1332H12.0831C12.671 15.1332 13.2349 14.8996 13.6506 14.4839C14.0663 14.0682 14.2998 13.5044 14.2998 12.9165C14.2998 12.3286 14.0663 11.7648 13.6506 11.3491C13.2349 10.9334 12.671 10.6998 12.0831 10.6998H7.91647C6.95727 10.6998 6.03736 10.3188 5.3591 9.64053C4.68085 8.96227 4.2998 8.04236 4.2998 7.08316C4.2998 6.12396 4.68085 5.20405 5.3591 4.52579C6.03736 3.84753 6.95727 3.46649 7.91647 3.46649H9.2998L9.2998 0.999805C9.2998 0.613205 9.61321 0.299805 9.9998 0.299805Z" fill="#FF577E"/>
</svg>
