<svg width="20" height="20" viewBox="0 0 20 20" fill="none" xmlns="http://www.w3.org/2000/svg">
<path fill-rule="evenodd" clip-rule="evenodd" d="M2.42368 4.67531C2.55836 4.30276 2.9171 4.0333 3.33352 4.0333H16.6669C17.0833 4.0333 17.442 4.30276 17.5767 4.67531L10.0002 9.97886L2.42368 4.67531ZM0.966886 4.9882C0.966778 4.99499 0.966768 5.00178 0.966857 5.00856V15C0.966857 16.3032 2.03026 17.3666 3.33352 17.3666H16.6669C17.9701 17.3666 19.0335 16.3032 19.0335 15V5.00851M17.6335 6.34445V15C17.6335 15.53 17.1969 15.9666 16.6669 15.9666H3.33352C2.80346 15.9666 2.36686 15.53 2.36686 15V6.34445L9.59877 11.4068C9.83979 11.5755 10.1606 11.5755 10.4016 11.4068L17.6335 6.34445ZM19.0335 4.98826C19.0271 3.69034 17.9662 2.6333 16.6669 2.6333H3.33352C2.03418 2.6333 0.973264 3.69031 0.966886 4.9882" fill="#8A8F99"/>
</svg>
