<svg width="20" height="20" viewBox="0 0 20 20" fill="none" xmlns="http://www.w3.org/2000/svg">
<g clip-path="url(#clip0_184_578)">
<path d="M19 10.8108C18.8424 12.5166 18.2022 14.1423 17.1543 15.4975C16.1065 16.8528 14.6944 17.8816 13.0832 18.4636C11.4719 19.0456 9.72832 19.1566 8.05629 18.7838C6.38426 18.411 4.85298 17.5697 3.64164 16.3584C2.43031 15.147 1.589 13.6157 1.21618 11.9437C0.843359 10.2717 0.954435 8.52805 1.53641 6.91685C2.11839 5.30564 3.1472 3.8935 4.50246 2.84567C5.85772 1.79783 7.48337 1.15764 9.18919 1C8.19048 2.35113 7.7099 4.01585 7.83485 5.69137C7.95979 7.36689 8.68197 8.94191 9.87003 10.13C11.0581 11.318 12.6331 12.0402 14.3086 12.1652C15.9842 12.2901 17.6489 11.8095 19 10.8108V10.8108Z" stroke="#C2C5CC" stroke-width="1.4" stroke-linecap="round" stroke-linejoin="round"/>
</g>
<defs>
<clipPath id="clip0_184_578">
<rect width="20" height="20" fill="white"/>
</clipPath>
</defs>
</svg>
