<svg width="20" height="20" viewBox="0 0 20 20" fill="none" xmlns="http://www.w3.org/2000/svg">
<path fill-rule="evenodd" clip-rule="evenodd" d="M2.95 10.6974V2.60284C2.95038 2.60084 2.95176 2.59468 2.95615 2.58456C2.96385 2.56678 2.97713 2.54566 2.9951 2.5263C3.00675 2.51374 3.01722 2.5053 3.02475 2.5001H16.9753C16.9828 2.5053 16.9932 2.51374 17.0049 2.52629C17.0229 2.54566 17.0362 2.56678 17.0439 2.58456C17.0482 2.59467 17.0496 2.60084 17.05 2.60283V10.6272C17.0216 10.7428 16.986 10.7833 16.9797 10.7896L16.9785 10.7907C16.9773 10.7918 16.9768 10.792 16.9756 10.7925L16.9752 10.7926C16.9721 10.7938 16.9547 10.8001 16.9147 10.8001H3.02475C3.01722 10.7949 3.00675 10.7865 2.9951 10.7739C2.97713 10.7545 2.96385 10.7334 2.95615 10.7156C2.95176 10.7055 2.95038 10.6994 2.95 10.6974ZM2.99251 1.1001C2.56013 1.1001 2.20051 1.32444 1.96897 1.5739C1.73427 1.82677 1.55 2.19025 1.55 2.6001V10.7001C1.55 11.1099 1.73427 11.4734 1.96897 11.7263C2.20051 11.9758 2.56013 12.2001 2.99251 12.2001H16.9147C17.31 12.2001 17.6791 12.0665 17.9634 11.7856C18.2347 11.5178 18.3748 11.1698 18.4382 10.8279C18.4461 10.7857 18.45 10.743 18.45 10.7001V2.6001C18.45 2.19025 18.2657 1.82677 18.031 1.5739C17.7995 1.32444 17.4399 1.1001 17.0075 1.1001H2.99251ZM9.00078 6.70006C9.00078 6.14778 9.4485 5.70006 10.0008 5.70006C10.5531 5.70006 11.0008 6.14778 11.0008 6.70006C11.0008 7.25235 10.5531 7.70006 10.0008 7.70006C9.4485 7.70006 9.00078 7.25235 9.00078 6.70006ZM10.0008 4.30006C8.6753 4.30006 7.60078 5.37458 7.60078 6.70006C7.60078 8.02554 8.6753 9.10006 10.0008 9.10006C11.3263 9.10006 12.4008 8.02554 12.4008 6.70006C12.4008 5.37458 11.3263 4.30006 10.0008 4.30006ZM5.00068 7.4009C5.38776 7.4009 5.70155 7.0871 5.70155 6.70002C5.70155 6.31294 5.38776 5.99915 5.00068 5.99915C4.6136 5.99915 4.2998 6.31294 4.2998 6.70002C4.2998 7.0871 4.6136 7.4009 5.00068 7.4009ZM15.7001 6.70001C15.7001 7.08641 15.3868 7.39965 15.0004 7.39965C14.614 7.39965 14.3008 7.08641 14.3008 6.70001C14.3008 6.31361 14.614 6.00037 15.0004 6.00037C15.3868 6.00037 15.7001 6.31361 15.7001 6.70001ZM1.55 14.9001C1.55 14.5135 1.8634 14.2001 2.25 14.2001H17.75C18.1366 14.2001 18.45 14.5135 18.45 14.9001C18.45 15.2867 18.1366 15.6001 17.75 15.6001H2.25C1.8634 15.6001 1.55 15.2867 1.55 14.9001ZM2.1248 17.6C1.73821 17.6 1.4248 17.9135 1.4248 18.3C1.4248 18.6866 1.73821 19 2.1248 19H17.6248C18.0114 19 18.3248 18.6866 18.3248 18.3C18.3248 17.9135 18.0114 17.6 17.6248 17.6H2.1248Z" fill="#8A8F99"/>
</svg>
