<svg width="20" height="20" viewBox="0 0 20 20" fill="none" xmlns="http://www.w3.org/2000/svg">
<g clip-path="url(#clip0_173_757)">
<path d="M6.83861 10.4444C6.72873 10.6089 6.67008 10.8022 6.67008 11C6.67008 11.1313 6.69595 11.2614 6.7462 11.3827C6.79646 11.504 6.87012 11.6142 6.96298 11.7071C7.05584 11.8 7.16608 11.8736 7.2874 11.9239C7.40873 11.9741 7.53876 12 7.67008 12C7.86787 12 8.06121 11.9413 8.22565 11.8315C8.3901 11.7216 8.51828 11.5654 8.59396 11.3827C8.66965 11.2 8.68946 10.9989 8.65087 10.8049C8.61228 10.6109 8.51704 10.4327 8.37719 10.2929C8.23734 10.153 8.05916 10.0578 7.86517 10.0192C7.67119 9.98063 7.47013 10.0004 7.2874 10.0761C7.10468 10.1518 6.9485 10.28 6.83861 10.4444Z" fill="#C2C5CC"/>
<path d="M10.0101 14.52C10.8977 14.5568 11.7706 14.2847 12.4801 13.75V13.79C12.5063 13.7644 12.5273 13.7339 12.5418 13.7002C12.5562 13.6664 12.5639 13.6302 12.5644 13.5935C12.5649 13.5569 12.5581 13.5204 12.5445 13.4864C12.5309 13.4523 12.5107 13.4213 12.4851 13.395C12.4595 13.3687 12.4289 13.3478 12.3952 13.3333C12.3615 13.3188 12.3253 13.3112 12.2886 13.3107C12.2145 13.3098 12.1431 13.3383 12.0901 13.39C11.4832 13.8254 10.7459 14.0406 10.0001 14C9.2552 14.0333 8.52131 13.811 7.92008 13.37C7.86827 13.3275 7.8025 13.3057 7.73555 13.309C7.6686 13.3123 7.60527 13.3404 7.55787 13.3878C7.51048 13.4352 7.48241 13.4985 7.47912 13.5655C7.47583 13.6324 7.49756 13.6982 7.54008 13.75C8.24956 14.2847 9.12247 14.5568 10.0101 14.52Z" fill="#C2C5CC"/>
<path d="M11.7445 11.8715C11.909 11.9813 12.1023 12.04 12.3001 12.04L12.2901 12.08C12.4257 12.0815 12.5602 12.0553 12.6853 12.0032C12.8105 11.9511 12.9238 11.874 13.0183 11.7767C13.1127 11.6795 13.1864 11.564 13.2349 11.4373C13.2833 11.3107 13.3055 11.1755 13.3001 11.04C13.3001 10.8422 13.2414 10.6489 13.1316 10.4844C13.0217 10.32 12.8655 10.1918 12.6828 10.1161C12.5 10.0404 12.299 10.0206 12.105 10.0592C11.911 10.0978 11.7328 10.193 11.593 10.3329C11.4531 10.4727 11.3579 10.6509 11.3193 10.8449C11.2807 11.0389 11.3005 11.24 11.3762 11.4227C11.4519 11.6054 11.5801 11.7616 11.7445 11.8715Z" fill="#C2C5CC"/>
<path fill-rule="evenodd" clip-rule="evenodd" d="M20 10C20 15.5228 15.5228 20 10 20C4.47715 20 0 15.5228 0 10C0 4.47715 4.47715 0 10 0C15.5228 0 20 4.47715 20 10ZM16.4066 9.21537C16.5683 9.44602 16.6598 9.71852 16.6701 10C16.6743 10.2755 16.6005 10.5466 16.4572 10.782C16.3139 11.0174 16.1069 11.2073 15.8601 11.33C15.8713 11.4764 15.8713 11.6235 15.8601 11.77C15.8601 14.01 13.2501 15.83 10.0301 15.83C6.81008 15.83 4.20008 14.01 4.20008 11.77C4.18882 11.6235 4.18882 11.4764 4.20008 11.33C4.00774 11.2416 3.83692 11.1125 3.69945 10.9515C3.56197 10.7906 3.46114 10.6017 3.40394 10.3979C3.34673 10.1941 3.33453 9.9803 3.36816 9.77132C3.4018 9.56234 3.48047 9.36317 3.59873 9.18762C3.71699 9.01207 3.872 8.86433 4.05303 8.75464C4.23407 8.64495 4.43678 8.57594 4.64714 8.55239C4.85749 8.52883 5.07045 8.5513 5.27126 8.61823C5.47207 8.68516 5.65593 8.79495 5.81008 8.94C6.96236 8.15852 8.31797 7.73099 9.71008 7.71L10.4501 4.24C10.4584 4.19983 10.4746 4.16171 10.4977 4.12784C10.5209 4.09398 10.5505 4.06504 10.585 4.04272C10.6194 4.0204 10.6579 4.00513 10.6982 3.99779C10.7386 3.99046 10.78 3.99121 10.8201 4L13.2701 4.49C13.3897 4.28444 13.5787 4.12825 13.8032 4.04948C14.0276 3.9707 14.2727 3.9745 14.4946 4.06018C14.7165 4.14587 14.9006 4.30784 15.0138 4.517C15.127 4.72617 15.162 4.96885 15.1124 5.20147C15.0628 5.4341 14.9319 5.64143 14.7433 5.78626C14.5546 5.9311 14.3205 6.00394 14.083 5.99172C13.8454 5.9795 13.62 5.88301 13.4472 5.71958C13.2744 5.55615 13.1655 5.33648 13.1401 5.1L11.0001 4.65L10.3501 7.77C11.7253 7.7995 13.0625 8.22671 14.2001 9C14.4033 8.80496 14.6586 8.67286 14.9352 8.61964C15.2118 8.56642 15.4979 8.59434 15.759 8.70004C16.02 8.80575 16.245 8.98471 16.4066 9.21537Z" fill="#C2C5CC"/>
</g>
<defs>
<clipPath id="clip0_173_757">
<rect width="20" height="20" fill="white"/>
</clipPath>
</defs>
</svg>
