<svg width="20" height="20" viewBox="0 0 20 20" fill="none" xmlns="http://www.w3.org/2000/svg">
<g clip-path="url(#clip0_208_528)">
<path fill-rule="evenodd" clip-rule="evenodd" d="M9.31594 1.81643C9.49723 1.63515 9.7431 1.5333 9.99948 1.5333C10.2559 1.5333 10.5017 1.63515 10.683 1.81643C10.8643 1.99772 10.9661 2.24359 10.9661 2.49997V2.57497L10.9662 2.57776C10.9678 2.98243 11.0877 3.3778 11.3111 3.71519C11.5339 4.05153 11.8498 4.31563 12.2202 4.4752C12.5987 4.6414 13.0181 4.69082 13.4249 4.61707C13.8328 4.5431 14.2092 4.34862 14.5056 4.0587L14.5057 4.05873L14.5111 4.05327L14.5611 4.00327L14.5614 4.003C14.6512 3.91312 14.7578 3.84182 14.8751 3.79318C14.9925 3.74453 15.1183 3.71949 15.2453 3.71949C15.3723 3.71949 15.4981 3.74453 15.6155 3.79318C15.7328 3.84182 15.8394 3.91312 15.9292 4.003L15.9298 4.00355C16.0197 4.09333 16.091 4.19994 16.1396 4.31729C16.1882 4.43464 16.2133 4.56043 16.2133 4.68747C16.2133 4.8145 16.1882 4.94029 16.1396 5.05764C16.091 5.17499 16.0197 5.28161 15.9298 5.37138L15.9295 5.37166L15.8795 5.42166L15.8795 5.42163L15.8741 5.42715C15.5842 5.72353 15.3897 6.09997 15.3157 6.50792C15.2506 6.86679 15.2814 7.23557 15.4038 7.57733C15.4113 7.64553 15.4289 7.71239 15.4561 7.77572C15.6155 8.14767 15.8802 8.46489 16.2176 8.68833C16.555 8.91177 16.9503 9.03168 17.355 9.03329L17.3578 9.0333H17.4995C17.7559 9.0333 18.0017 9.13515 18.183 9.31643C18.3643 9.49772 18.4661 9.74359 18.4661 9.99997C18.4661 10.2563 18.3643 10.5022 18.183 10.6835C18.0017 10.8648 17.7559 10.9666 17.4995 10.9666L17.4245 10.9666L17.4217 10.9666C17.017 10.9683 16.6216 11.0882 16.2843 11.3116C15.9479 11.5343 15.6838 11.8502 15.5243 12.2207C15.358 12.5991 15.3086 13.0186 15.3824 13.4253C15.4563 13.8333 15.6508 14.2097 15.9407 14.5061L15.9407 14.5061L15.9462 14.5116L15.9962 14.5616L15.9964 14.5619C16.0863 14.6517 16.1576 14.7583 16.2063 14.8756C16.2549 14.993 16.28 15.1188 16.28 15.2458C16.28 15.3728 16.2549 15.4986 16.2063 15.616C16.1576 15.7333 16.0863 15.8399 15.9964 15.9297L15.9959 15.9303C15.9061 16.0201 15.7995 16.0914 15.6822 16.1401C15.5648 16.1887 15.439 16.2138 15.312 16.2138C15.1849 16.2138 15.0592 16.1887 14.9418 16.1401C14.8245 16.0914 14.7178 16.0201 14.6281 15.9303L14.6278 15.93L14.5778 15.88L14.5778 15.88L14.5723 15.8746C14.2759 15.5846 13.8995 15.3902 13.4915 15.3162C13.0848 15.2424 12.6653 15.2919 12.2868 15.4581C11.9164 15.6177 11.6005 15.8818 11.3778 16.2181C11.1543 16.5555 11.0344 16.9508 11.0328 17.3555L11.0328 17.3583V17.5C11.0328 17.7563 10.931 18.0022 10.7497 18.1835C10.5684 18.3648 10.3225 18.4666 10.0661 18.4666C9.80977 18.4666 9.56389 18.3648 9.38261 18.1835C9.20132 18.0022 9.09948 17.7563 9.09948 17.5V17.425L9.09929 17.4086C9.08955 16.9923 8.95481 16.5887 8.7126 16.25C8.47467 15.9173 8.14385 15.6625 7.76184 15.5174C7.38785 15.3571 6.9748 15.3102 6.5741 15.3829C6.16615 15.4568 5.78971 15.6513 5.49333 15.9412L5.4933 15.9412L5.48783 15.9467L5.43783 15.9967L5.43756 15.9969C5.34779 16.0868 5.24117 16.1581 5.12382 16.2068C5.00647 16.2554 4.88068 16.2804 4.75365 16.2804C4.62661 16.2804 4.50082 16.2554 4.38347 16.2068C4.26612 16.1581 4.1595 16.0868 4.06973 15.9969L4.06918 15.9964C3.9793 15.9066 3.908 15.8 3.85935 15.6826C3.81071 15.5653 3.78567 15.4395 3.78567 15.3125C3.78567 15.1854 3.81071 15.0596 3.85935 14.9423C3.908 14.8249 3.9793 14.7183 4.06918 14.6285L4.06945 14.6283L4.11945 14.5783L4.11948 14.5783L4.12488 14.5728C4.4148 14.2764 4.60928 13.9 4.68325 13.492C4.757 13.0853 4.70758 12.6658 4.54138 12.2874C4.3818 11.9169 4.11771 11.601 3.78137 11.3783C3.44398 11.1548 3.04861 11.0349 2.64394 11.0333H2.64115H2.49948C2.2431 11.0333 1.99723 10.9315 1.81594 10.7502C1.63466 10.5689 1.53281 10.323 1.53281 10.0666C1.53281 9.81026 1.63466 9.56438 1.81594 9.3831C1.99723 9.20181 2.2431 9.09997 2.49948 9.09997H2.57448L2.59085 9.09978C3.0071 9.09004 3.41079 8.9553 3.74945 8.71308C4.08211 8.47516 4.3369 8.14433 4.48204 7.76232C4.64236 7.38833 4.68924 6.97528 4.61659 6.57459C4.54262 6.16664 4.34813 5.7902 4.05822 5.49381L4.05825 5.49378L4.05279 5.48833L4.00279 5.43833L4.00251 5.43805C3.91263 5.34827 3.84133 5.24166 3.79269 5.12431C3.74404 5.00696 3.719 4.88117 3.719 4.75413C3.719 4.6271 3.74404 4.50131 3.79269 4.38396C3.84133 4.26661 3.91263 4.15999 4.00251 4.07022L4.00306 4.06967C4.09284 3.97979 4.19945 3.90849 4.3168 3.85984C4.43415 3.8112 4.55994 3.78616 4.68698 3.78616C4.81401 3.78616 4.9398 3.8112 5.05715 3.85984C5.17451 3.90849 5.28112 3.97979 5.37089 4.06967L5.37117 4.06994L5.42117 4.11994L5.42114 4.11997L5.42666 4.12537C5.72304 4.41529 6.09948 4.60977 6.50743 4.68374C6.86631 4.74881 7.23509 4.718 7.57684 4.59568C7.64504 4.5881 7.7119 4.57051 7.77523 4.54337C8.14718 4.38395 8.4644 4.11925 8.68784 3.78186C8.91128 3.44446 9.03119 3.0491 9.03281 2.64443L9.03281 2.64163V2.49997C9.03281 2.24359 9.13466 1.99772 9.31594 1.81643ZM16.8065 12.7826L16.1661 12.5L16.8095 12.7757C16.8614 12.6547 16.9475 12.5515 17.0573 12.4788C17.1667 12.4063 17.295 12.3674 17.4263 12.3666H17.4995C18.1272 12.3666 18.7291 12.1173 19.173 11.6735C19.6168 11.2296 19.8661 10.6276 19.8661 9.99997C19.8661 9.37229 19.6168 8.77032 19.173 8.32648C18.7291 7.88265 18.1272 7.6333 17.4995 7.6333H17.3594C17.2282 7.63255 17.1 7.59356 16.9906 7.52109C16.9088 7.46695 16.8402 7.39589 16.7891 7.31315C16.7794 7.25734 16.7629 7.20277 16.7399 7.15066C16.6854 7.02728 16.6692 6.8904 16.6932 6.7577C16.7171 6.62604 16.7796 6.50448 16.8726 6.40842L16.9192 6.36188L16.9195 6.36161C17.1394 6.14187 17.3138 5.88095 17.4329 5.59376C17.552 5.30645 17.6133 4.99848 17.6133 4.68747C17.6133 4.37645 17.552 4.06848 17.4329 3.78118C17.3139 3.49411 17.1395 3.23329 16.9197 3.0136C16.6999 2.79356 16.4389 2.61899 16.1516 2.49989C15.8643 2.38079 15.5563 2.31949 15.2453 2.31949C14.9343 2.31949 14.6263 2.38079 14.339 2.49989C14.0517 2.61899 13.7907 2.79356 13.5709 3.0136L13.5244 3.06012C13.4283 3.1532 13.3067 3.21566 13.1751 3.23953C13.0424 3.2636 12.9055 3.24735 12.7821 3.1929L12.7821 3.19286L12.7752 3.1899C12.6542 3.13805 12.551 3.05194 12.4784 2.94218C12.4059 2.83271 12.3669 2.70447 12.3661 2.57318V2.49997C12.3661 1.87229 12.1168 1.27032 11.673 0.826481C11.2291 0.382645 10.6272 0.133301 9.99948 0.133301C9.3718 0.133301 8.76983 0.382645 8.32599 0.826481C7.88216 1.27032 7.63281 1.87229 7.63281 2.49997V2.64002C7.63206 2.77125 7.59307 2.89942 7.5206 3.00885C7.46646 3.0906 7.3954 3.15923 7.31267 3.21035C7.25685 3.22008 7.20228 3.23657 7.15018 3.25956C7.02679 3.31402 6.88991 3.33026 6.75721 3.3062C6.62555 3.28233 6.50397 3.21987 6.40791 3.12679L6.36139 3.08027L6.36115 3.08002L6.36112 3.07999C6.14138 2.86008 5.88046 2.68561 5.59327 2.56656C5.30596 2.44746 4.998 2.38616 4.68698 2.38616C4.37596 2.38616 4.068 2.44746 3.78069 2.56656C3.4935 2.68561 3.23258 2.86008 3.01284 3.07999C2.79292 3.29973 2.61846 3.56065 2.4994 3.84784C2.3803 4.13515 2.319 4.44312 2.319 4.75413C2.319 5.06515 2.3803 5.37312 2.4994 5.66043C2.61846 5.94761 2.79292 6.20853 3.01284 6.42827L3.01311 6.42855L3.05963 6.47507C3.15271 6.57113 3.21517 6.6927 3.23905 6.82436C3.26311 6.95707 3.24686 7.09394 3.19241 7.21733C3.18645 7.23082 3.18093 7.2445 3.17584 7.25834C3.12908 7.38546 3.04517 7.49557 2.935 7.57437C2.82667 7.65185 2.69788 7.69552 2.56486 7.69997H2.49948C1.8718 7.69997 1.26983 7.94931 0.825993 8.39315C0.382157 8.83698 0.132812 9.43895 0.132812 10.0666C0.132812 10.6943 0.382157 11.2963 0.825993 11.7401C1.26983 12.184 1.8718 12.4333 2.49948 12.4333H2.63936C2.77065 12.434 2.89889 12.473 3.00836 12.5455C3.11812 12.6182 3.20422 12.7214 3.25608 12.8424L3.25604 12.8424L3.25907 12.8493C3.31353 12.9727 3.32978 13.1095 3.30571 13.2422C3.28184 13.3739 3.21938 13.4955 3.1263 13.5915L3.07978 13.638C2.85973 13.8578 2.68517 14.1189 2.56607 14.4062C2.44697 14.6935 2.38567 15.0014 2.38567 15.3125C2.38567 15.6235 2.44697 15.9314 2.56607 16.2188C2.68517 16.5061 2.85973 16.7671 3.07978 16.9869C3.29947 17.2067 3.56029 17.381 3.84735 17.5C4.13466 17.6191 4.44263 17.6804 4.75365 17.6804C5.06466 17.6804 5.37263 17.6191 5.65994 17.5C5.94724 17.3809 6.20826 17.2064 6.42806 16.9863L6.47455 16.9398C6.57061 16.8467 6.6922 16.7843 6.82387 16.7604C6.95658 16.7363 7.09345 16.7526 7.21684 16.807C7.23033 16.813 7.24401 16.8185 7.25785 16.8236C7.38497 16.8704 7.49508 16.9543 7.57388 17.0644C7.65136 17.1728 7.69503 17.3016 7.69948 17.4346V17.5C7.69948 18.1276 7.94882 18.7296 8.39266 19.1735C8.83649 19.6173 9.43847 19.8666 10.0661 19.8666C10.6938 19.8666 11.2958 19.6173 11.7396 19.1735C12.1835 18.7296 12.4328 18.1276 12.4328 17.5V17.3601C12.4335 17.2288 12.4725 17.1006 12.545 16.9911C12.6177 16.8813 12.7209 16.7952 12.8419 16.7434L12.8419 16.7434L12.8488 16.7404C12.9722 16.6859 13.109 16.6697 13.2417 16.6937C13.3734 16.7176 13.495 16.7801 13.591 16.8731L13.6376 16.9197L13.6378 16.9199C13.8576 17.1399 14.1185 17.3143 14.4057 17.4334C14.693 17.5525 15.001 17.6138 15.312 17.6138C15.623 17.6138 15.931 17.5525 16.2183 17.4334C16.5055 17.3143 16.7664 17.1399 16.9861 16.9199C17.206 16.7002 17.3805 16.4393 17.4996 16.1521C17.6187 15.8648 17.68 15.5568 17.68 15.2458C17.68 14.9348 17.6187 14.6268 17.4996 14.3395C17.3805 14.0522 17.2059 13.7912 16.9858 13.5714L16.9393 13.5249C16.8462 13.4288 16.7838 13.3072 16.7599 13.1756C16.7358 13.0429 16.7521 12.906 16.8065 12.7826ZM8.19956 9.99999C8.19956 9.00587 9.00545 8.19999 9.99956 8.19999C10.9937 8.19999 11.7996 9.00587 11.7996 9.99999C11.7996 10.9941 10.9937 11.8 9.99956 11.8C9.00545 11.8 8.19956 10.9941 8.19956 9.99999ZM9.99956 6.79999C8.23225 6.79999 6.79956 8.23268 6.79956 9.99999C6.79956 11.7673 8.23225 13.2 9.99956 13.2C11.7669 13.2 13.1996 11.7673 13.1996 9.99999C13.1996 8.23268 11.7669 6.79999 9.99956 6.79999Z" fill="#8A8F99"/>
</g>
<defs>
<clipPath id="clip0_208_528">
<rect width="20" height="20" fill="white"/>
</clipPath>
</defs>
</svg>
