<svg width="20" height="20" viewBox="0 0 20 20" fill="none" xmlns="http://www.w3.org/2000/svg">
<g clip-path="url(#clip0_187_795)">
<path fill-rule="evenodd" clip-rule="evenodd" d="M9.99956 0.133301C10.3862 0.133301 10.6996 0.446701 10.6996 0.833301V2.49997C10.6996 2.88657 10.3862 3.19997 9.99956 3.19997C9.61296 3.19997 9.29956 2.88657 9.29956 2.49997V0.833301C9.29956 0.446701 9.61296 0.133301 9.99956 0.133301ZM9.99956 5.69999C7.62474 5.69999 5.69956 7.62516 5.69956 9.99999C5.69956 12.3748 7.62474 14.3 9.99956 14.3C12.3744 14.3 14.2996 12.3748 14.2996 9.99999C14.2996 7.62516 12.3744 5.69999 9.99956 5.69999ZM4.29956 9.99999C4.29956 6.85196 6.85154 4.29999 9.99956 4.29999C13.1476 4.29999 15.6996 6.85196 15.6996 9.99999C15.6996 13.148 13.1476 15.7 9.99956 15.7C6.85154 15.7 4.29956 13.148 4.29956 9.99999ZM10.6996 17.5C10.6996 17.1134 10.3862 16.8 9.99956 16.8C9.61296 16.8 9.29956 17.1134 9.29956 17.5V19.1667C9.29956 19.5533 9.61296 19.8667 9.99956 19.8667C10.3862 19.8667 10.6996 19.5533 10.6996 19.1667V17.5ZM3.02119 3.02168C3.29455 2.74831 3.73777 2.74831 4.01114 3.02168L5.19447 4.20501C5.46784 4.47838 5.46784 4.92159 5.19447 5.19496C4.9211 5.46833 4.47789 5.46833 4.20452 5.19496L3.02119 4.01163C2.74782 3.73826 2.74782 3.29504 3.02119 3.02168ZM15.7946 14.805C15.5212 14.5316 15.078 14.5316 14.8046 14.805C14.5313 15.0784 14.5313 15.5216 14.8046 15.795L15.988 16.9783C16.2613 17.2516 16.7045 17.2516 16.9779 16.9783C17.2513 16.7049 17.2513 16.2617 16.9779 15.9883L15.7946 14.805ZM0.132812 9.99999C0.132812 9.61339 0.446213 9.29999 0.832812 9.29999H2.49948C2.88608 9.29999 3.19948 9.61339 3.19948 9.99999C3.19948 10.3866 2.88608 10.7 2.49948 10.7H0.832812C0.446213 10.7 0.132812 10.3866 0.132812 9.99999ZM17.4996 9.29999C17.113 9.29999 16.7996 9.61339 16.7996 9.99999C16.7996 10.3866 17.113 10.7 17.4996 10.7H19.1662C19.5528 10.7 19.8662 10.3866 19.8662 9.99999C19.8662 9.61339 19.5528 9.29999 19.1662 9.29999H17.4996ZM5.19447 14.805C5.46784 15.0784 5.46784 15.5216 5.19447 15.795L4.01114 16.9783C3.73777 17.2516 3.29455 17.2516 3.02119 16.9783C2.74782 16.7049 2.74782 16.2617 3.02119 15.9883L4.20452 14.805C4.47789 14.5316 4.9211 14.5316 5.19447 14.805ZM16.9779 4.01163C17.2513 3.73826 17.2513 3.29504 16.9779 3.02168C16.7045 2.74831 16.2613 2.74831 15.988 3.02168L14.8046 4.20501C14.5313 4.47838 14.5313 4.92159 14.8046 5.19496C15.078 5.46833 15.5212 5.46833 15.7946 5.19496L16.9779 4.01163Z" fill="#8A8F99"/>
</g>
<defs>
<clipPath id="clip0_187_795">
<rect width="20" height="20" fill="white"/>
</clipPath>
</defs>
</svg>
