<svg width="20" height="20" viewBox="0 0 20 20" fill="none" xmlns="http://www.w3.org/2000/svg">
<path fill-rule="evenodd" clip-rule="evenodd" d="M9.9998 1.2998C9.81415 1.2998 9.63611 1.37355 9.50483 1.50483C9.37355 1.63611 9.2998 1.81415 9.2998 1.9998V9.9998C9.2998 10.3864 9.6132 10.6998 9.9998 10.6998H17.9998C18.3864 10.6998 18.6998 10.3864 18.6998 9.9998C18.6998 8.8573 18.4748 7.72599 18.0376 6.67046C17.6003 5.61493 16.9595 4.65585 16.1516 3.84798C15.3438 3.04011 14.3847 2.39927 13.3292 1.96205C12.2736 1.52484 11.1423 1.2998 9.9998 1.2998ZM10.6998 9.2998V2.73344C11.4184 2.80267 12.1241 2.97823 12.7934 3.25548C13.6791 3.62234 14.4838 4.16006 15.1617 4.83793C15.8396 5.51579 16.3773 6.32054 16.7441 7.20622C17.0214 7.87556 17.1969 8.58122 17.2662 9.2998H10.6998ZM6.96561 3.64114C7.3198 3.48621 7.48134 3.07348 7.32641 2.71928C7.17148 2.36508 6.75875 2.20354 6.40456 2.35847C5.13063 2.9157 4.01245 3.77717 3.14768 4.86742C2.28292 5.95766 1.69787 7.2435 1.44354 8.6125C1.18921 9.98149 1.27331 11.3921 1.68853 12.721C2.10374 14.0499 2.83746 15.2569 3.82569 16.2362C4.81392 17.2155 6.02659 17.9374 7.35773 18.3385C8.68887 18.7397 10.0978 18.808 11.4614 18.5373C12.825 18.2666 14.1015 17.6652 15.1794 16.7859C16.2572 15.9066 17.1037 14.7761 17.6448 13.4935C17.795 13.1373 17.6281 12.7267 17.2719 12.5764C16.9157 12.4262 16.5051 12.5931 16.3548 12.9493C15.9025 14.0216 15.195 14.9664 14.2944 15.7011C13.3938 16.4358 12.3275 16.938 11.1888 17.1641C10.0501 17.3901 8.87343 17.3332 7.76172 16.9981C6.65 16.663 5.63692 16.0601 4.81113 15.2417C3.98534 14.4234 3.37197 13.4146 3.02482 12.3035C2.67766 11.1924 2.60733 10.0129 2.81999 8.86821C3.03265 7.72352 3.5218 6.64861 4.24454 5.73743C4.96727 4.82625 5.90155 4.10656 6.96561 3.64114Z" fill="#8A8F99"/>
</svg>
