<svg width="20" height="20" viewBox="0 0 20 20" fill="none" xmlns="http://www.w3.org/2000/svg">
<g clip-path="url(#clip0_173_1006)">
<path fill-rule="evenodd" clip-rule="evenodd" d="M2.64993 2.64993C2.83121 2.46864 3.07709 2.3668 3.33346 2.3668H10.8335C11.0898 2.3668 11.3357 2.46864 11.517 2.64993C11.6983 2.83121 11.8001 3.07709 11.8001 3.33346V4.1668C11.8001 4.5534 12.1135 4.8668 12.5001 4.8668C12.8867 4.8668 13.2001 4.5534 13.2001 4.1668V3.33346C13.2001 2.70578 12.9508 2.10381 12.5069 1.65998C12.0631 1.21614 11.4611 0.966797 10.8335 0.966797H3.33346C2.70578 0.966797 2.10381 1.21614 1.65998 1.65998C1.21614 2.10381 0.966797 2.70578 0.966797 3.33346V10.8335C0.966797 11.4611 1.21614 12.0631 1.65998 12.5069C2.10381 12.9508 2.70578 13.2001 3.33346 13.2001H4.1668C4.5534 13.2001 4.8668 12.8867 4.8668 12.5001C4.8668 12.1135 4.5534 11.8001 4.1668 11.8001H3.33346C3.07709 11.8001 2.83121 11.6983 2.64993 11.517C2.46864 11.3357 2.3668 11.0898 2.3668 10.8335V3.33346C2.3668 3.07709 2.46864 2.83121 2.64993 2.64993ZM8.1998 9.16672C8.1998 8.63284 8.6326 8.20005 9.16647 8.20005H16.6665C17.2003 8.20005 17.6331 8.63284 17.6331 9.16672V16.6667C17.6331 17.2006 17.2003 17.6334 16.6665 17.6334H9.16647C8.6326 17.6334 8.1998 17.2006 8.1998 16.6667V9.16672ZM9.16647 6.80005C7.8594 6.80005 6.7998 7.85964 6.7998 9.16672V16.6667C6.7998 17.9738 7.8594 19.0334 9.16647 19.0334H16.6665C17.9735 19.0334 19.0331 17.9738 19.0331 16.6667V9.16672C19.0331 7.85964 17.9735 6.80005 16.6665 6.80005H9.16647Z" fill="#3FE7BE"/>
</g>
<defs>
<clipPath id="clip0_173_1006">
<rect width="20" height="20" fill="white"/>
</clipPath>
</defs>
</svg>
