<svg width="20" height="20" viewBox="0 0 20 20" fill="none" xmlns="http://www.w3.org/2000/svg">
<rect width="20" height="20" rx="10" fill="#50AF95"/>
<path fill-rule="evenodd" clip-rule="evenodd" d="M11.2208 10.9131C11.1526 10.9182 10.8003 10.9391 10.0145 10.9391C9.38946 10.9391 8.94569 10.9204 8.79 10.9131C6.37454 10.8073 4.57162 10.3889 4.57162 9.88788C4.57162 9.38688 6.37454 8.969 8.79 8.86156V10.4963C8.94796 10.5076 9.40026 10.5342 10.0253 10.5342C10.7753 10.5342 11.1509 10.5031 11.2185 10.4969V8.86269C13.6289 8.96957 15.4278 9.38801 15.4278 9.88788C15.4278 10.3878 13.6294 10.8062 11.2185 10.9125L11.2208 10.9131ZM11.2208 8.69362V7.23076H14.5846V5H5.4262V7.23076H8.78943V8.69306C6.05578 8.81802 4 9.35691 4 10.0027C4 10.6484 6.05578 11.1868 8.78943 11.3123V16H11.2202V11.3106C13.9476 11.1856 16 10.6473 16 10.0021C16 9.35691 13.9499 8.81915 11.2208 8.69362Z" fill="white"/>
</svg>
