<svg width="20" height="20" viewBox="0 0 20 20" fill="none" xmlns="http://www.w3.org/2000/svg">
<rect width="20" height="20" rx="10" fill="#F7931A"/>
<path d="M14.3505 8.77523C14.5456 7.46178 13.5528 6.7557 12.1952 6.28467L12.6356 4.50544L11.5604 4.23553L11.1317 5.96788C10.849 5.89693 10.5587 5.82999 10.2703 5.76367L10.702 4.01991L9.62748 3.75L9.18681 5.52862C8.95285 5.47495 8.72317 5.42189 8.50023 5.36606L8.50146 5.36051L7.01868 4.98757L6.73266 6.14432C6.73266 6.14432 7.5304 6.32847 7.51355 6.33989C7.94902 6.44939 8.02772 6.73966 8.01455 6.96978L7.51294 8.99671C7.54295 9.00442 7.58185 9.01553 7.62472 9.0328C7.58889 9.02386 7.55061 9.01399 7.5111 9.00442L6.80799 11.8439C6.75471 11.9771 6.61966 12.177 6.31527 12.1011C6.32599 12.1169 5.53376 11.9046 5.53376 11.9046L5 13.1444L6.39918 13.4957C6.65947 13.5614 6.91456 13.6302 7.16567 13.695L6.72072 15.4946L7.79467 15.7645L8.23534 13.984C8.52871 14.0642 8.81351 14.1382 9.09218 14.208L8.65304 15.9801L9.72822 16.25L10.1732 14.4538C12.0066 14.8033 13.3853 14.6623 13.9656 12.992C14.4332 11.6471 13.9423 10.8713 12.9777 10.3654C13.6802 10.2022 14.2093 9.73672 14.3505 8.77523ZM11.8939 12.2452C11.5616 13.5901 9.31359 12.863 8.58475 12.6807L9.17517 10.2966C9.904 10.4798 12.2412 10.8426 11.8939 12.2452ZM12.2265 8.7558C11.9233 9.97918 10.0522 9.35762 9.44527 9.20524L9.98056 7.04288C10.5875 7.19527 12.5422 7.47967 12.2265 8.7558Z" fill="white"/>
</svg>
