<svg width="12" height="12" viewBox="0 0 12 12" fill="none" xmlns="http://www.w3.org/2000/svg">
<g clip-path="url(#clip0_183_953)">
<path fill-rule="evenodd" clip-rule="evenodd" d="M5.9998 1.6998C3.62498 1.6998 1.6998 3.62498 1.6998 5.9998C1.6998 8.37463 3.62498 10.2998 5.9998 10.2998C8.37463 10.2998 10.2998 8.37463 10.2998 5.9998C10.2998 3.62498 8.37463 1.6998 5.9998 1.6998ZM0.299805 5.9998C0.299805 2.85178 2.85178 0.299805 5.9998 0.299805C9.14783 0.299805 11.6998 2.85178 11.6998 5.9998C11.6998 9.14783 9.14783 11.6998 5.9998 11.6998C2.85178 11.6998 0.299805 9.14783 0.299805 5.9998ZM5.9999 5.29979C6.3865 5.29979 6.6999 5.61319 6.6999 5.99979V7.99979C6.6999 8.38639 6.3865 8.69979 5.9999 8.69979C5.6133 8.69979 5.2999 8.38639 5.2999 7.99979V5.99979C5.2999 5.61319 5.6133 5.29979 5.9999 5.29979ZM5.9999 3.2998C5.6133 3.2998 5.2999 3.61321 5.2999 3.9998C5.2999 4.3864 5.6133 4.6998 5.9999 4.6998H6.0049C6.3915 4.6998 6.7049 4.3864 6.7049 3.9998C6.7049 3.61321 6.3915 3.2998 6.0049 3.2998H5.9999Z" fill="#8A8F99"/>
</g>
<defs>
<clipPath id="clip0_183_953">
<rect width="12" height="12" fill="white"/>
</clipPath>
</defs>
</svg>
